<?xml version="1.0" standalone="no"?>
<svg xmlns="http://www.w3.org/2000/svg" width="960" height="800"><g id="links"><line class="link" stroke="#999999" stroke-opacity="0.8" x1="477.1810521435262" y1="405.73656510142047" x2="476.21074507653395" y2="394.9917081978647"/><line class="link" stroke="#999999" stroke-opacity="0.8" x1="477.1810521435262" y1="405.73656510142047" x2="486.0014841494069" y2="399.50452141239487"/><line class="link" stroke="#999999" stroke-opacity="0.8" x1="477.1810521435262" y1="405.73656510142047" x2="483.3191820541234" y2="405.1207840799205"/><line class="link" stroke="#999999" stroke-opacity="0.8" x1="477.1810521435262" y1="405.73656510142047" x2="482.4397487282457" y2="394.45020724485704"/><line class="link" stroke="#999999" stroke-opacity="0.8" x1="477.1810521435262" y1="405.73656510142047" x2="473.64331857283184" y2="400.63104515255793"/><line class="link" stroke="#999999" stroke-opacity="0.8" x1="486.0014841494069" y1="399.50452141239487" x2="476.21074507653395" y2="394.9917081978647"/><line class="link" stroke="#999999" stroke-opacity="0.8" x1="486.0014841494069" y1="399.50452141239487" x2="482.4397487282457" y2="394.45020724485704"/><line class="link" stroke="#999999" stroke-opacity="0.8" x1="486.0014841494069" y1="399.50452141239487" x2="473.64331857283184" y2="400.63104515255793"/><line class="link" stroke="#999999" stroke-opacity="0.8" x1="486.0014841494069" y1="399.50452141239487" x2="483.3191820541234" y2="405.1207840799205"/><line class="link" stroke="#999999" stroke-opacity="0.8" x1="473.64331857283184" y1="400.63104515255793" x2="476.21074507653395" y2="394.9917081978647"/><line class="link" stroke="#999999" stroke-opacity="0.8" x1="473.64331857283184" y1="400.63104515255793" x2="483.3191820541234" y2="405.1207840799205"/><line class="link" stroke="#999999" stroke-opacity="0.8" x1="473.64331857283184" y1="400.63104515255793" x2="482.4397487282457" y2="394.45020724485704"/><line class="link" stroke="#999999" stroke-opacity="0.8" x1="476.21074507653395" y1="394.9917081978647" x2="483.3191820541234" y2="405.1207840799205"/><line class="link" stroke="#999999" stroke-opacity="0.8" x1="476.21074507653395" y1="394.9917081978647" x2="482.4397487282457" y2="394.45020724485704"/><line class="link" stroke="#999999" stroke-opacity="0.8" x1="482.4397487282457" y1="394.45020724485704" x2="483.3191820541234" y2="405.1207840799205"/></g><g id="nodes"><circle class="node" cx="477.1810521435262" cy="405.73656510142047" r="0.44" style="fill: #00ffff; stroke: #00b2b2; stroke-width: 1px;"/><circle class="node" cx="486.0014841494069" cy="399.50452141239487" r="0.44" style="fill: #00ffff; stroke: #00b2b2; stroke-width: 1px;"/><circle class="node" cx="473.64331857283184" cy="400.63104515255793" r="0.44" style="fill: #00ffff; stroke: #00b2b2; stroke-width: 1px;"/><circle class="node" cx="476.21074507653395" cy="394.9917081978647" r="0.44" style="fill: #00ffff; stroke: #00b2b2; stroke-width: 1px;"/><circle class="node" cx="482.4397487282457" cy="394.45020724485704" r="0.44" style="fill: #00ffff; stroke: #00b2b2; stroke-width: 1px;"/><circle class="node" cx="483.3191820541234" cy="405.1207840799205" r="0.44" style="fill: #00ffff; stroke: #00b2b2; stroke-width: 1px;"/></g></svg>