<?xml version="1.0" standalone="no"?>
<svg xmlns="http://www.w3.org/2000/svg" width="960" height="800"><g id="links"><line class="link" stroke="gray" stroke-opacity="0.8" x1="474.4414120842987" y1="401.5851124251616" x2="478.8802338400859" y2="405.84926148220427"/><line class="link" stroke="gray" stroke-opacity="0.8" x1="474.4414120842987" y1="401.5851124251616" x2="484.85170802705306" y2="404.1693068403701"/><line class="link" stroke="gray" stroke-opacity="0.8" x1="474.4414120842987" y1="401.5851124251616" x2="475.89343670719614" y2="395.59994776294076"/><line class="link" stroke="gray" stroke-opacity="0.8" x1="474.4414120842987" y1="401.5851124251616" x2="481.82889053263824" y2="393.7996851467021"/><line class="link" stroke="gray" stroke-opacity="0.8" x1="474.4414120842987" y1="401.5851124251616" x2="486.3620593952356" y2="398.11303162782576"/><line class="link" stroke="gray" stroke-opacity="0.8" x1="478.8802338400859" y1="405.84926148220427" x2="484.85170802705306" y2="404.1693068403701"/><line class="link" stroke="gray" stroke-opacity="0.8" x1="478.8802338400859" y1="405.84926148220427" x2="475.89343670719614" y2="395.59994776294076"/><line class="link" stroke="gray" stroke-opacity="0.8" x1="478.8802338400859" y1="405.84926148220427" x2="481.82889053263824" y2="393.7996851467021"/><line class="link" stroke="gray" stroke-opacity="0.8" x1="478.8802338400859" y1="405.84926148220427" x2="486.3620593952356" y2="398.11303162782576"/><line class="link" stroke="gray" stroke-opacity="0.8" x1="484.85170802705306" y1="404.1693068403701" x2="481.82889053263824" y2="393.7996851467021"/><line class="link" stroke="gray" stroke-opacity="0.8" x1="484.85170802705306" y1="404.1693068403701" x2="475.89343670719614" y2="395.59994776294076"/><line class="link" stroke="gray" stroke-opacity="0.8" x1="484.85170802705306" y1="404.1693068403701" x2="486.3620593952356" y2="398.11303162782576"/><line class="link" stroke="gray" stroke-opacity="0.8" x1="475.89343670719614" y1="395.59994776294076" x2="481.82889053263824" y2="393.7996851467021"/><line class="link" stroke="gray" stroke-opacity="0.8" x1="475.89343670719614" y1="395.59994776294076" x2="486.3620593952356" y2="398.11303162782576"/><line class="link" stroke="gray" stroke-opacity="0.8" x1="486.3620593952356" y1="398.11303162782576" x2="481.82889053263824" y2="393.7996851467021"/></g><g id="nodes"><circle class="node" cx="474.4414120842987" cy="401.5851124251616" r="0.44" style="fill: #1f77b4; stroke: #15537d; stroke-width: 1px;"/><circle class="node" cx="478.8802338400859" cy="405.84926148220427" r="0.44" style="fill: #1f77b4; stroke: #15537d; stroke-width: 1px;"/><circle class="node" cx="484.85170802705306" cy="404.1693068403701" r="0.44" style="fill: #1f77b4; stroke: #15537d; stroke-width: 1px;"/><circle class="node" cx="475.89343670719614" cy="395.59994776294076" r="0.44" style="fill: #1f77b4; stroke: #15537d; stroke-width: 1px;"/><circle class="node" cx="486.3620593952356" cy="398.11303162782576" r="0.44" style="fill: #1f77b4; stroke: #15537d; stroke-width: 1px;"/><circle class="node" cx="481.82889053263824" cy="393.7996851467021" r="0.44" style="fill: #1f77b4; stroke: #15537d; stroke-width: 1px;"/></g></svg>