<?xml version="1.0" standalone="no"?>
<svg xmlns="http://www.w3.org/2000/svg" width="960" height="800"><g id="links"><line class="link" stroke="#999999" stroke-opacity="0.8" x1="474.75906684400775" y1="395.2611607569953" x2="486.52498209203674" y2="400.03880174757404"/><line class="link" stroke="#999999" stroke-opacity="0.8" x1="474.75906684400775" y1="395.2611607569953" x2="473.65673685818984" y2="403.01919264105226"/><line class="link" stroke="#999999" stroke-opacity="0.8" x1="474.75906684400775" y1="395.2611607569953" x2="479.7167152102752" y2="400.36710640189983"/><line class="link" stroke="#999999" stroke-opacity="0.8" x1="474.75906684400775" y1="395.2611607569953" x2="482.1353022762198" y2="393.56556817158156"/><line class="link" stroke="#999999" stroke-opacity="0.8" x1="474.75906684400775" y1="395.2611607569953" x2="481.2938984582688" y2="406.48764039928767"/><line class="link" stroke="#999999" stroke-opacity="0.8" x1="473.65673685818984" y1="403.01919264105226" x2="486.52498209203674" y2="400.03880174757404"/><line class="link" stroke="#999999" stroke-opacity="0.8" x1="473.65673685818984" y1="403.01919264105226" x2="482.1353022762198" y2="393.56556817158156"/><line class="link" stroke="#999999" stroke-opacity="0.8" x1="473.65673685818984" y1="403.01919264105226" x2="481.2938984582688" y2="406.48764039928767"/><line class="link" stroke="#999999" stroke-opacity="0.8" x1="473.65673685818984" y1="403.01919264105226" x2="479.7167152102752" y2="400.36710640189983"/><line class="link" stroke="#999999" stroke-opacity="0.8" x1="481.2938984582688" y1="406.48764039928767" x2="486.52498209203674" y2="400.03880174757404"/><line class="link" stroke="#999999" stroke-opacity="0.8" x1="481.2938984582688" y1="406.48764039928767" x2="479.7167152102752" y2="400.36710640189983"/><line class="link" stroke="#999999" stroke-opacity="0.8" x1="481.2938984582688" y1="406.48764039928767" x2="482.1353022762198" y2="393.56556817158156"/><line class="link" stroke="#999999" stroke-opacity="0.8" x1="486.52498209203674" y1="400.03880174757404" x2="479.7167152102752" y2="400.36710640189983"/><line class="link" stroke="#999999" stroke-opacity="0.8" x1="486.52498209203674" y1="400.03880174757404" x2="482.1353022762198" y2="393.56556817158156"/><line class="link" stroke="#999999" stroke-opacity="0.8" x1="482.1353022762198" y1="393.56556817158156" x2="479.7167152102752" y2="400.36710640189983"/></g><g id="nodes"><circle class="node" cx="474.75906684400775" cy="395.2611607569953" r="0.44" style="fill: #00ffff; stroke: #00b2b2; stroke-width: 1px;"/><circle class="node" cx="473.65673685818984" cy="403.01919264105226" r="0.44" style="fill: #00ffff; stroke: #00b2b2; stroke-width: 1px;"/><circle class="node" cx="481.2938984582688" cy="406.48764039928767" r="0.44" style="fill: #00ffff; stroke: #00b2b2; stroke-width: 1px;"/><circle class="node" cx="486.52498209203674" cy="400.03880174757404" r="0.44" style="fill: #00ffff; stroke: #00b2b2; stroke-width: 1px;"/><circle class="node" cx="482.1353022762198" cy="393.56556817158156" r="0.44" style="fill: #00ffff; stroke: #00b2b2; stroke-width: 1px;"/><circle class="node" cx="479.7167152102752" cy="400.36710640189983" r="0.44" style="fill: #00ffff; stroke: #00b2b2; stroke-width: 1px;"/></g></svg>