<?xml version="1.0" standalone="no"?>
<svg xmlns="http://www.w3.org/2000/svg" width="960" height="800"><g id="links"><line class="link" stroke="#999999" stroke-opacity="0.8" x1="476.9364421813967" y1="394.47510315348154" x2="476.5354512577887" y2="405.252826243241"/><line class="link" stroke="#999999" stroke-opacity="0.8" x1="476.9364421813967" y1="394.47510315348154" x2="486.0550091085837" y2="400.25622186499345"/><line class="link" stroke="#999999" stroke-opacity="0.8" x1="476.9364421813967" y1="394.47510315348154" x2="482.74287949138534" y2="405.4807314977503"/><line class="link" stroke="#999999" stroke-opacity="0.8" x1="476.9364421813967" y1="394.47510315348154" x2="473.6313035726244" y2="399.7155315017934"/><line class="link" stroke="#999999" stroke-opacity="0.8" x1="476.9364421813967" y1="394.47510315348154" x2="483.12164840093226" y2="394.78368611878136"/><line class="link" stroke="#999999" stroke-opacity="0.8" x1="486.0550091085837" y1="400.25622186499345" x2="476.5354512577887" y2="405.252826243241"/><line class="link" stroke="#999999" stroke-opacity="0.8" x1="486.0550091085837" y1="400.25622186499345" x2="482.74287949138534" y2="405.4807314977503"/><line class="link" stroke="#999999" stroke-opacity="0.8" x1="486.0550091085837" y1="400.25622186499345" x2="473.6313035726244" y2="399.7155315017934"/><line class="link" stroke="#999999" stroke-opacity="0.8" x1="486.0550091085837" y1="400.25622186499345" x2="483.12164840093226" y2="394.78368611878136"/><line class="link" stroke="#999999" stroke-opacity="0.8" x1="482.74287949138534" y1="405.4807314977503" x2="476.5354512577887" y2="405.252826243241"/><line class="link" stroke="#999999" stroke-opacity="0.8" x1="482.74287949138534" y1="405.4807314977503" x2="473.6313035726244" y2="399.7155315017934"/><line class="link" stroke="#999999" stroke-opacity="0.8" x1="482.74287949138534" y1="405.4807314977503" x2="483.12164840093226" y2="394.78368611878136"/><line class="link" stroke="#999999" stroke-opacity="0.8" x1="483.12164840093226" y1="394.78368611878136" x2="476.5354512577887" y2="405.252826243241"/><line class="link" stroke="#999999" stroke-opacity="0.8" x1="483.12164840093226" y1="394.78368611878136" x2="473.6313035726244" y2="399.7155315017934"/><line class="link" stroke="#999999" stroke-opacity="0.8" x1="476.5354512577887" y1="405.252826243241" x2="473.6313035726244" y2="399.7155315017934"/></g><g id="nodes"><circle class="node" cx="476.9364421813967" cy="394.47510315348154" r="0.44" style="fill: #00ffff; stroke: #00b2b2; stroke-width: 1px;"/><circle class="node" cx="486.0550091085837" cy="400.25622186499345" r="0.44" style="fill: #00ffff; stroke: #00b2b2; stroke-width: 1px;"/><circle class="node" cx="482.74287949138534" cy="405.4807314977503" r="0.44" style="fill: #00ffff; stroke: #00b2b2; stroke-width: 1px;"/><circle class="node" cx="483.12164840093226" cy="394.78368611878136" r="0.44" style="fill: #00ffff; stroke: #00b2b2; stroke-width: 1px;"/><circle class="node" cx="476.5354512577887" cy="405.252826243241" r="0.44" style="fill: #00ffff; stroke: #00b2b2; stroke-width: 1px;"/><circle class="node" cx="473.6313035726244" cy="399.7155315017934" r="0.44" style="fill: #00ffff; stroke: #00b2b2; stroke-width: 1px;"/></g></svg>