<?xml version="1.0" standalone="no"?>
<svg xmlns="http://www.w3.org/2000/svg" width="960" height="800"><g id="links"><line class="link" stroke="gray" stroke-opacity="0.8" x1="478.3532535982693" y1="394.01104406283815" x2="475.7355790069002" y2="404.43803943104064"/><line class="link" stroke="gray" stroke-opacity="0.8" x1="478.3532535982693" y1="394.01104406283815" x2="481.6963324215316" y2="406.0186464058378"/><line class="link" stroke="gray" stroke-opacity="0.8" x1="478.3532535982693" y1="394.01104406283815" x2="484.35173514085244" y2="395.5541314105763"/><line class="link" stroke="gray" stroke-opacity="0.8" x1="478.3532535982693" y1="394.01104406283815" x2="474.00309241991334" y2="398.4485557755363"/><line class="link" stroke="gray" stroke-opacity="0.8" x1="478.3532535982693" y1="394.01104406283815" x2="485.96996178427753" y2="401.5469772381464"/><line class="link" stroke="gray" stroke-opacity="0.8" x1="481.6963324215316" y1="406.0186464058378" x2="475.7355790069002" y2="404.43803943104064"/><line class="link" stroke="gray" stroke-opacity="0.8" x1="481.6963324215316" y1="406.0186464058378" x2="474.00309241991334" y2="398.4485557755363"/><line class="link" stroke="gray" stroke-opacity="0.8" x1="481.6963324215316" y1="406.0186464058378" x2="485.96996178427753" y2="401.5469772381464"/><line class="link" stroke="gray" stroke-opacity="0.8" x1="481.6963324215316" y1="406.0186464058378" x2="484.35173514085244" y2="395.5541314105763"/><line class="link" stroke="gray" stroke-opacity="0.8" x1="485.96996178427753" y1="401.5469772381464" x2="475.7355790069002" y2="404.43803943104064"/><line class="link" stroke="gray" stroke-opacity="0.8" x1="485.96996178427753" y1="401.5469772381464" x2="484.35173514085244" y2="395.5541314105763"/><line class="link" stroke="gray" stroke-opacity="0.8" x1="485.96996178427753" y1="401.5469772381464" x2="474.00309241991334" y2="398.4485557755363"/><line class="link" stroke="gray" stroke-opacity="0.8" x1="475.7355790069002" y1="404.43803943104064" x2="484.35173514085244" y2="395.5541314105763"/><line class="link" stroke="gray" stroke-opacity="0.8" x1="475.7355790069002" y1="404.43803943104064" x2="474.00309241991334" y2="398.4485557755363"/><line class="link" stroke="gray" stroke-opacity="0.8" x1="474.00309241991334" y1="398.4485557755363" x2="484.35173514085244" y2="395.5541314105763"/></g><g id="nodes"><circle class="node" cx="478.3532535982693" cy="394.01104406283815" r="0.44" style="fill: #1f77b4; stroke: #15537d; stroke-width: 1px;"/><circle class="node" cx="481.6963324215316" cy="406.0186464058378" r="0.44" style="fill: #1f77b4; stroke: #15537d; stroke-width: 1px;"/><circle class="node" cx="485.96996178427753" cy="401.5469772381464" r="0.44" style="fill: #1f77b4; stroke: #15537d; stroke-width: 1px;"/><circle class="node" cx="475.7355790069002" cy="404.43803943104064" r="0.44" style="fill: #1f77b4; stroke: #15537d; stroke-width: 1px;"/><circle class="node" cx="474.00309241991334" cy="398.4485557755363" r="0.44" style="fill: #1f77b4; stroke: #15537d; stroke-width: 1px;"/><circle class="node" cx="484.35173514085244" cy="395.5541314105763" r="0.44" style="fill: #1f77b4; stroke: #15537d; stroke-width: 1px;"/></g></svg>