<?xml version="1.0" standalone="no"?>
<svg xmlns="http://www.w3.org/2000/svg" width="960" height="800"><g id="links"><line class="link" stroke="gray" stroke-opacity="0.8" x1="475.0375726123058" y1="396.18404234553907" x2="473.9528016930076" y2="402.25016340884946"/><line class="link" stroke="gray" stroke-opacity="0.8" x1="475.0375726123058" y1="396.18404234553907" x2="485.66859052791943" y2="398.0600046113946"/><line class="link" stroke="gray" stroke-opacity="0.8" x1="475.0375726123058" y1="396.18404234553907" x2="478.6576513212341" y2="406.28985385307"/><line class="link" stroke="gray" stroke-opacity="0.8" x1="475.0375726123058" y1="396.18404234553907" x2="480.8715882952482" y2="394.1166237895718"/><line class="link" stroke="gray" stroke-opacity="0.8" x1="475.0375726123058" y1="396.18404234553907" x2="484.53023813061714" y2="404.17677252766185"/><line class="link" stroke="gray" stroke-opacity="0.8" x1="473.9528016930076" y1="402.25016340884946" x2="485.66859052791943" y2="398.0600046113946"/><line class="link" stroke="gray" stroke-opacity="0.8" x1="473.9528016930076" y1="402.25016340884946" x2="478.6576513212341" y2="406.28985385307"/><line class="link" stroke="gray" stroke-opacity="0.8" x1="473.9528016930076" y1="402.25016340884946" x2="480.8715882952482" y2="394.1166237895718"/><line class="link" stroke="gray" stroke-opacity="0.8" x1="473.9528016930076" y1="402.25016340884946" x2="484.53023813061714" y2="404.17677252766185"/><line class="link" stroke="gray" stroke-opacity="0.8" x1="485.66859052791943" y1="398.0600046113946" x2="480.8715882952482" y2="394.1166237895718"/><line class="link" stroke="gray" stroke-opacity="0.8" x1="485.66859052791943" y1="398.0600046113946" x2="478.6576513212341" y2="406.28985385307"/><line class="link" stroke="gray" stroke-opacity="0.8" x1="485.66859052791943" y1="398.0600046113946" x2="484.53023813061714" y2="404.17677252766185"/><line class="link" stroke="gray" stroke-opacity="0.8" x1="478.6576513212341" y1="406.28985385307" x2="480.8715882952482" y2="394.1166237895718"/><line class="link" stroke="gray" stroke-opacity="0.8" x1="478.6576513212341" y1="406.28985385307" x2="484.53023813061714" y2="404.17677252766185"/><line class="link" stroke="gray" stroke-opacity="0.8" x1="484.53023813061714" y1="404.17677252766185" x2="480.8715882952482" y2="394.1166237895718"/></g><g id="nodes"><circle class="node" cx="475.0375726123058" cy="396.18404234553907" r="0.44" style="fill: #1f77b4; stroke: #15537d; stroke-width: 1px;"/><circle class="node" cx="473.9528016930076" cy="402.25016340884946" r="0.44" style="fill: #1f77b4; stroke: #15537d; stroke-width: 1px;"/><circle class="node" cx="485.66859052791943" cy="398.0600046113946" r="0.44" style="fill: #1f77b4; stroke: #15537d; stroke-width: 1px;"/><circle class="node" cx="478.6576513212341" cy="406.28985385307" r="0.44" style="fill: #1f77b4; stroke: #15537d; stroke-width: 1px;"/><circle class="node" cx="484.53023813061714" cy="404.17677252766185" r="0.44" style="fill: #1f77b4; stroke: #15537d; stroke-width: 1px;"/><circle class="node" cx="480.8715882952482" cy="394.1166237895718" r="0.44" style="fill: #1f77b4; stroke: #15537d; stroke-width: 1px;"/></g></svg>