<?xml version="1.0" standalone="no"?>
<svg xmlns="http://www.w3.org/2000/svg" width="960" height="800"><g id="links"><line class="link" stroke="#999999" stroke-opacity="0.8" x1="475.7750660359785" y1="394.53532753066474" x2="479.46871499862476" y2="406.9281189128703"/><line class="link" stroke="#999999" stroke-opacity="0.8" x1="475.7750660359785" y1="394.53532753066474" x2="479.5171510449041" y2="399.6805063282846"/><line class="link" stroke="#999999" stroke-opacity="0.8" x1="475.7750660359785" y1="394.53532753066474" x2="473.3283976467766" y2="402.30912478970487"/><line class="link" stroke="#999999" stroke-opacity="0.8" x1="475.7750660359785" y1="394.53532753066474" x2="485.9109459487216" y2="402.785582904963"/><line class="link" stroke="#999999" stroke-opacity="0.8" x1="475.7750660359785" y1="394.53532753066474" x2="484.12219801729196" y2="395.0504916445228"/><line class="link" stroke="#999999" stroke-opacity="0.8" x1="479.5171510449041" y1="399.6805063282846" x2="479.46871499862476" y2="406.9281189128703"/><line class="link" stroke="#999999" stroke-opacity="0.8" x1="479.5171510449041" y1="399.6805063282846" x2="473.3283976467766" y2="402.30912478970487"/><line class="link" stroke="#999999" stroke-opacity="0.8" x1="479.5171510449041" y1="399.6805063282846" x2="485.9109459487216" y2="402.785582904963"/><line class="link" stroke="#999999" stroke-opacity="0.8" x1="479.5171510449041" y1="399.6805063282846" x2="484.12219801729196" y2="395.0504916445228"/><line class="link" stroke="#999999" stroke-opacity="0.8" x1="473.3283976467766" y1="402.30912478970487" x2="479.46871499862476" y2="406.9281189128703"/><line class="link" stroke="#999999" stroke-opacity="0.8" x1="473.3283976467766" y1="402.30912478970487" x2="485.9109459487216" y2="402.785582904963"/><line class="link" stroke="#999999" stroke-opacity="0.8" x1="473.3283976467766" y1="402.30912478970487" x2="484.12219801729196" y2="395.0504916445228"/><line class="link" stroke="#999999" stroke-opacity="0.8" x1="484.12219801729196" y1="395.0504916445228" x2="479.46871499862476" y2="406.9281189128703"/><line class="link" stroke="#999999" stroke-opacity="0.8" x1="484.12219801729196" y1="395.0504916445228" x2="485.9109459487216" y2="402.785582904963"/><line class="link" stroke="#999999" stroke-opacity="0.8" x1="479.46871499862476" y1="406.9281189128703" x2="485.9109459487216" y2="402.785582904963"/></g><g id="nodes"><circle class="node" cx="475.7750660359785" cy="394.53532753066474" r="0.44" style="fill: #00ffff; stroke: #00b2b2; stroke-width: 1px;"/><circle class="node" cx="479.5171510449041" cy="399.6805063282846" r="0.44" style="fill: #00ffff; stroke: #00b2b2; stroke-width: 1px;"/><circle class="node" cx="473.3283976467766" cy="402.30912478970487" r="0.44" style="fill: #00ffff; stroke: #00b2b2; stroke-width: 1px;"/><circle class="node" cx="484.12219801729196" cy="395.0504916445228" r="0.44" style="fill: #00ffff; stroke: #00b2b2; stroke-width: 1px;"/><circle class="node" cx="479.46871499862476" cy="406.9281189128703" r="0.44" style="fill: #00ffff; stroke: #00b2b2; stroke-width: 1px;"/><circle class="node" cx="485.9109459487216" cy="402.785582904963" r="0.44" style="fill: #00ffff; stroke: #00b2b2; stroke-width: 1px;"/></g></svg>