<?xml version="1.0" standalone="no"?>
<svg xmlns="http://www.w3.org/2000/svg" width="960" height="800"><g id="links"><line class="link" stroke="gray" stroke-opacity="0.8" x1="482.3754321763786" y1="397.8842045531614" x2="480.33004154934576" y2="388.82564932674296"/><line class="link" stroke="gray" stroke-opacity="0.8" x1="482.3754321763786" y1="397.8842045531614" x2="473.5993794962873" y2="403.2202175050368"/><line class="link" stroke="gray" stroke-opacity="0.8" x1="482.3754321763786" y1="397.8842045531614" x2="472.9173218631388" y2="394.1594468722802"/><line class="link" stroke="gray" stroke-opacity="0.8" x1="482.3754321763786" y1="397.8842045531614" x2="482.0461204799807" y2="406.9905286184859"/><line class="link" stroke="gray" stroke-opacity="0.8" x1="481.13579474124174" y1="390.3789590764587" x2="476.0969207507983" y2="398.37932236229244"/><line class="link" stroke="gray" stroke-opacity="0.8" x1="481.13579474124174" y1="390.3789590764587" x2="475.0392039456842" y2="398.70828707866923"/><line class="link" stroke="gray" stroke-opacity="0.8" x1="481.13579474124174" y1="390.3789590764587" x2="486.4451115166838" y2="398.0646085511722"/><line class="link" stroke="gray" stroke-opacity="0.8" x1="483.34647105182773" y1="405.68716701252475" x2="477.92330875970106" y2="397.3767486373035"/><line class="link" stroke="gray" stroke-opacity="0.8" x1="483.34647105182773" y1="405.68716701252475" x2="490.8109493048529" y2="398.53276539145855"/><line class="link" stroke="gray" stroke-opacity="0.8" x1="483.34647105182773" y1="405.68716701252475" x2="481.603197667063" y2="396.3278549021619"/><line class="link" stroke="gray" stroke-opacity="0.8" x1="483.34647105182773" y1="405.68716701252475" x2="473.5993794962873" y2="403.2202175050368"/><line class="link" stroke="gray" stroke-opacity="0.8" x1="490.8109493048529" y1="398.53276539145855" x2="484.5773058359717" y2="405.65476372265164"/><line class="link" stroke="gray" stroke-opacity="0.8" x1="490.8109493048529" y1="398.53276539145855" x2="481.603197667063" y2="396.3278549021619"/><line class="link" stroke="gray" stroke-opacity="0.8" x1="490.8109493048529" y1="398.53276539145855" x2="481.4104982324558" y2="395.6023749007776"/><line class="link" stroke="gray" stroke-opacity="0.8" x1="485.00102354598977" y1="406.9271629688685" x2="475.8253892748908" y2="403.15822441624437"/><line class="link" stroke="gray" stroke-opacity="0.8" x1="485.00102354598977" y1="406.9271629688685" x2="475.3718374162214" y2="403.6842507003583"/><line class="link" stroke="gray" stroke-opacity="0.8" x1="485.00102354598977" y1="406.9271629688685" x2="483.72376302827803" y2="397.58595729813686"/><line class="link" stroke="gray" stroke-opacity="0.8" x1="481.4104982324558" y1="395.6023749007776" x2="484.5773058359717" y2="405.65476372265164"/><line class="link" stroke="gray" stroke-opacity="0.8" x1="481.4104982324558" y1="395.6023749007776" x2="475.3718374162214" y2="403.6842507003583"/><line class="link" stroke="gray" stroke-opacity="0.8" x1="481.4104982324558" y1="395.6023749007776" x2="475.8253892748908" y2="403.15822441624437"/><line class="link" stroke="gray" stroke-opacity="0.8" x1="477.92330875970106" y1="397.3767486373035" x2="472.0319339115354" y2="405.04412600896666"/><line class="link" stroke="gray" stroke-opacity="0.8" x1="477.92330875970106" y1="397.3767486373035" x2="482.0461204799807" y2="406.9905286184859"/><line class="link" stroke="gray" stroke-opacity="0.8" x1="473.5993794962873" y1="403.2202175050368" x2="481.603197667063" y2="396.3278549021619"/><line class="link" stroke="gray" stroke-opacity="0.8" x1="473.5993794962873" y1="403.2202175050368" x2="472.9173218631388" y2="394.1594468722802"/><line class="link" stroke="gray" stroke-opacity="0.8" x1="473.5993794962873" y1="403.2202175050368" x2="482.0461204799807" y2="406.9905286184859"/><line class="link" stroke="gray" stroke-opacity="0.8" x1="486.4451115166838" y1="398.0646085511722" x2="476.0969207507983" y2="398.37932236229244"/><line class="link" stroke="gray" stroke-opacity="0.8" x1="486.4451115166838" y1="398.0646085511722" x2="481.64019643750737" y2="406.2848824243131"/><line class="link" stroke="gray" stroke-opacity="0.8" x1="486.4451115166838" y1="398.0646085511722" x2="482.0461204799807" y2="406.9905286184859"/><line class="link" stroke="gray" stroke-opacity="0.8" x1="481.603197667063" y1="396.3278549021619" x2="472.9173218631388" y2="394.1594468722802"/><line class="link" stroke="gray" stroke-opacity="0.8" x1="481.603197667063" y1="396.3278549021619" x2="484.5773058359717" y2="405.65476372265164"/><line class="link" stroke="gray" stroke-opacity="0.8" x1="472.9173218631388" y1="394.1594468722802" x2="480.33004154934576" y2="388.82564932674296"/><line class="link" stroke="gray" stroke-opacity="0.8" x1="472.9173218631388" y1="394.1594468722802" x2="475.3718374162214" y2="403.6842507003583"/><line class="link" stroke="gray" stroke-opacity="0.8" x1="472.9173218631388" y1="394.1594468722802" x2="483.72376302827803" y2="397.58595729813686"/><line class="link" stroke="gray" stroke-opacity="0.8" x1="483.72376302827803" y1="397.58595729813686" x2="480.33004154934576" y2="388.82564932674296"/><line class="link" stroke="gray" stroke-opacity="0.8" x1="483.72376302827803" y1="397.58595729813686" x2="475.0392039456842" y2="398.70828707866923"/><line class="link" stroke="gray" stroke-opacity="0.8" x1="483.72376302827803" y1="397.58595729813686" x2="475.3718374162214" y2="403.6842507003583"/><line class="link" stroke="gray" stroke-opacity="0.8" x1="480.33004154934576" y1="388.82564932674296" x2="475.0392039456842" y2="398.70828707866923"/><line class="link" stroke="gray" stroke-opacity="0.8" x1="484.5773058359717" y1="405.65476372265164" x2="475.3718374162214" y2="403.6842507003583"/><line class="link" stroke="gray" stroke-opacity="0.8" x1="476.0969207507983" y1="398.37932236229244" x2="481.64019643750737" y2="406.2848824243131"/><line class="link" stroke="gray" stroke-opacity="0.8" x1="482.0461204799807" y1="406.9905286184859" x2="472.0319339115354" y2="405.04412600896666"/><line class="link" stroke="gray" stroke-opacity="0.8" x1="482.0461204799807" y1="406.9905286184859" x2="475.0392039456842" y2="398.70828707866923"/><line class="link" stroke="gray" stroke-opacity="0.8" x1="472.0319339115354" y1="405.04412600896666" x2="481.64019643750737" y2="406.2848824243131"/></g><g id="nodes"><circle class="node" cx="482.3754321763786" cy="397.8842045531614" r="0.44" style="fill: #1f77b4; stroke: #15537d; stroke-width: 1px;"/><circle class="node" cx="481.13579474124174" cy="390.3789590764587" r="0.44" style="fill: #1f77b4; stroke: #15537d; stroke-width: 1px;"/><circle class="node" cx="483.34647105182773" cy="405.68716701252475" r="0.44" style="fill: #1f77b4; stroke: #15537d; stroke-width: 1px;"/><circle class="node" cx="490.8109493048529" cy="398.53276539145855" r="0.44" style="fill: #1f77b4; stroke: #15537d; stroke-width: 1px;"/><circle class="node" cx="485.00102354598977" cy="406.9271629688685" r="0.44" style="fill: #1f77b4; stroke: #15537d; stroke-width: 1px;"/><circle class="node" cx="481.4104982324558" cy="395.6023749007776" r="0.44" style="fill: #1f77b4; stroke: #15537d; stroke-width: 1px;"/><circle class="node" cx="477.92330875970106" cy="397.3767486373035" r="0.44" style="fill: #1f77b4; stroke: #15537d; stroke-width: 1px;"/><circle class="node" cx="473.5993794962873" cy="403.2202175050368" r="0.44" style="fill: #1f77b4; stroke: #15537d; stroke-width: 1px;"/><circle class="node" cx="486.4451115166838" cy="398.0646085511722" r="0.44" style="fill: #1f77b4; stroke: #15537d; stroke-width: 1px;"/><circle class="node" cx="481.603197667063" cy="396.3278549021619" r="0.44" style="fill: #1f77b4; stroke: #15537d; stroke-width: 1px;"/><circle class="node" cx="472.9173218631388" cy="394.1594468722802" r="0.44" style="fill: #1f77b4; stroke: #15537d; stroke-width: 1px;"/><circle class="node" cx="483.72376302827803" cy="397.58595729813686" r="0.44" style="fill: #1f77b4; stroke: #15537d; stroke-width: 1px;"/><circle class="node" cx="475.8253892748908" cy="403.15822441624437" r="0.44" style="fill: #1f77b4; stroke: #15537d; stroke-width: 1px;"/><circle class="node" cx="480.33004154934576" cy="388.82564932674296" r="0.44" style="fill: #1f77b4; stroke: #15537d; stroke-width: 1px;"/><circle class="node" cx="484.5773058359717" cy="405.65476372265164" r="0.44" style="fill: #1f77b4; stroke: #15537d; stroke-width: 1px;"/><circle class="node" cx="476.0969207507983" cy="398.37932236229244" r="0.44" style="fill: #1f77b4; stroke: #15537d; stroke-width: 1px;"/><circle class="node" cx="475.3718374162214" cy="403.6842507003583" r="0.44" style="fill: #1f77b4; stroke: #15537d; stroke-width: 1px;"/><circle class="node" cx="482.0461204799807" cy="406.9905286184859" r="0.44" style="fill: #1f77b4; stroke: #15537d; stroke-width: 1px;"/><circle class="node" cx="472.0319339115354" cy="405.04412600896666" r="0.44" style="fill: #1f77b4; stroke: #15537d; stroke-width: 1px;"/><circle class="node" cx="475.0392039456842" cy="398.70828707866923" r="0.44" style="fill: #1f77b4; stroke: #15537d; stroke-width: 1px;"/><circle class="node" cx="481.64019643750737" cy="406.2848824243131" r="0.44" style="fill: #1f77b4; stroke: #15537d; stroke-width: 1px;"/></g></svg>