<?xml version="1.0" standalone="no"?>
<svg xmlns="http://www.w3.org/2000/svg" width="960" height="800"><g id="links"><line class="link" stroke="gray" stroke-opacity="0.8" x1="475.0264390040574" y1="401.712767258377" x2="470.8822303258794" y2="393.3129927048751"/><line class="link" stroke="gray" stroke-opacity="0.8" x1="475.0264390040574" y1="401.712767258377" x2="480.84227673494206" y2="392.78151963957214"/><line class="link" stroke="gray" stroke-opacity="0.8" x1="475.0264390040574" y1="401.712767258377" x2="484.29768361470906" y2="402.03634820302244"/><line class="link" stroke="gray" stroke-opacity="0.8" x1="485.8419162064842" y1="396.8390855317491" x2="488.6689747581824" y2="406.9910438333748"/><line class="link" stroke="gray" stroke-opacity="0.8" x1="485.8419162064842" y1="396.8390855317491" x2="475.5906188020892" y2="395.51378756293497"/><line class="link" stroke="gray" stroke-opacity="0.8" x1="485.8419162064842" y1="396.8390855317491" x2="479.35631544418504" y2="404.39323098450075"/><line class="link" stroke="gray" stroke-opacity="0.8" x1="485.8419162064842" y1="396.8390855317491" x2="480.1678607543357" y2="404.4003834897163"/><line class="link" stroke="gray" stroke-opacity="0.8" x1="485.8419162064842" y1="396.8390855317491" x2="479.2152390492689" y2="404.762792690067"/><line class="link" stroke="gray" stroke-opacity="0.8" x1="479.02738493792356" y1="392.8793340801278" x2="471.21788020554607" y2="399.15030925548285"/><line class="link" stroke="gray" stroke-opacity="0.8" x1="479.02738493792356" y1="392.8793340801278" x2="480.5192441971643" y2="402.0157848947452"/><line class="link" stroke="gray" stroke-opacity="0.8" x1="479.02738493792356" y1="392.8793340801278" x2="484.29768361470906" y2="402.03634820302244"/><line class="link" stroke="gray" stroke-opacity="0.8" x1="486.50087839921036" y1="406.08232050096655" x2="477.25800492436474" y2="404.46356569690255"/><line class="link" stroke="gray" stroke-opacity="0.8" x1="486.50087839921036" y1="406.08232050096655" x2="485.5057148088753" y2="396.5852963643544"/><line class="link" stroke="gray" stroke-opacity="0.8" x1="484.29768361470906" y1="402.03634820302244" x2="480.84227673494206" y2="392.78151963957214"/><line class="link" stroke="gray" stroke-opacity="0.8" x1="485.91967878760585" y1="398.38414265081417" x2="480.28923522426487" y2="391.42805639841515"/><line class="link" stroke="gray" stroke-opacity="0.8" x1="485.91967878760585" y1="398.38414265081417" x2="476.1777913279513" y2="394.99031930053997"/><line class="link" stroke="gray" stroke-opacity="0.8" x1="485.91967878760585" y1="398.38414265081417" x2="477.25800492436474" y2="404.46356569690255"/><line class="link" stroke="gray" stroke-opacity="0.8" x1="485.91967878760585" y1="398.38414265081417" x2="480.1678607543357" y2="404.4003834897163"/><line class="link" stroke="gray" stroke-opacity="0.8" x1="485.91967878760585" y1="398.38414265081417" x2="474.51250960733046" y2="399.33735611580977"/><line class="link" stroke="gray" stroke-opacity="0.8" x1="480.28923522426487" y1="391.42805639841515" x2="470.8822303258794" y2="393.3129927048751"/><line class="link" stroke="gray" stroke-opacity="0.8" x1="480.28923522426487" y1="391.42805639841515" x2="480.5192441971643" y2="402.0157848947452"/><line class="link" stroke="gray" stroke-opacity="0.8" x1="480.28923522426487" y1="391.42805639841515" x2="474.51250960733046" y2="399.33735611580977"/><line class="link" stroke="gray" stroke-opacity="0.8" x1="479.2152390492689" y1="404.762792690067" x2="476.1777913279513" y2="394.99031930053997"/><line class="link" stroke="gray" stroke-opacity="0.8" x1="479.2152390492689" y1="404.762792690067" x2="475.5906188020892" y2="395.51378756293497"/><line class="link" stroke="gray" stroke-opacity="0.8" x1="479.2152390492689" y1="404.762792690067" x2="485.5057148088753" y2="396.5852963643544"/><line class="link" stroke="gray" stroke-opacity="0.8" x1="480.5192441971643" y1="402.0157848947452" x2="488.6689747581824" y2="406.9910438333748"/><line class="link" stroke="gray" stroke-opacity="0.8" x1="480.5192441971643" y1="402.0157848947452" x2="480.84227673494206" y2="392.78151963957214"/><line class="link" stroke="gray" stroke-opacity="0.8" x1="480.5192441971643" y1="402.0157848947452" x2="471.21788020554607" y2="399.15030925548285"/><line class="link" stroke="gray" stroke-opacity="0.8" x1="480.5192441971643" y1="402.0157848947452" x2="477.6499054507681" y2="411.1290080201078"/><line class="link" stroke="gray" stroke-opacity="0.8" x1="477.6499054507681" y1="411.1290080201078" x2="488.6689747581824" y2="406.9910438333748"/><line class="link" stroke="gray" stroke-opacity="0.8" x1="477.6499054507681" y1="411.1290080201078" x2="480.1678607543357" y2="404.4003834897163"/><line class="link" stroke="gray" stroke-opacity="0.8" x1="477.6499054507681" y1="411.1290080201078" x2="474.51250960733046" y2="399.33735611580977"/><line class="link" stroke="gray" stroke-opacity="0.8" x1="479.35631544418504" y1="404.39323098450075" x2="471.21788020554607" y2="399.15030925548285"/><line class="link" stroke="gray" stroke-opacity="0.8" x1="479.35631544418504" y1="404.39323098450075" x2="488.6689747581824" y2="406.9910438333748"/><line class="link" stroke="gray" stroke-opacity="0.8" x1="479.35631544418504" y1="404.39323098450075" x2="475.5906188020892" y2="395.51378756293497"/><line class="link" stroke="gray" stroke-opacity="0.8" x1="480.1678607543357" y1="404.4003834897163" x2="488.6689747581824" y2="406.9910438333748"/><line class="link" stroke="gray" stroke-opacity="0.8" x1="480.1678607543357" y1="404.4003834897163" x2="474.51250960733046" y2="399.33735611580977"/><line class="link" stroke="gray" stroke-opacity="0.8" x1="480.1678607543357" y1="404.4003834897163" x2="476.1777913279513" y2="394.99031930053997"/><line class="link" stroke="gray" stroke-opacity="0.8" x1="485.5057148088753" y1="396.5852963643544" x2="475.5906188020892" y2="395.51378756293497"/><line class="link" stroke="gray" stroke-opacity="0.8" x1="485.5057148088753" y1="396.5852963643544" x2="476.1777913279513" y2="394.99031930053997"/><line class="link" stroke="gray" stroke-opacity="0.8" x1="470.8822303258794" y1="393.3129927048751" x2="480.84227673494206" y2="392.78151963957214"/><line class="link" stroke="gray" stroke-opacity="0.8" x1="476.1777913279513" y1="394.99031930053997" x2="477.25800492436474" y2="404.46356569690255"/></g><g id="nodes"><circle class="node" cx="475.0264390040574" cy="401.712767258377" r="0.44" style="fill: #1f77b4; stroke: #15537d; stroke-width: 1px;"/><circle class="node" cx="485.8419162064842" cy="396.8390855317491" r="0.44" style="fill: #1f77b4; stroke: #15537d; stroke-width: 1px;"/><circle class="node" cx="479.02738493792356" cy="392.8793340801278" r="0.44" style="fill: #1f77b4; stroke: #15537d; stroke-width: 1px;"/><circle class="node" cx="486.50087839921036" cy="406.08232050096655" r="0.44" style="fill: #1f77b4; stroke: #15537d; stroke-width: 1px;"/><circle class="node" cx="484.29768361470906" cy="402.03634820302244" r="0.44" style="fill: #1f77b4; stroke: #15537d; stroke-width: 1px;"/><circle class="node" cx="485.91967878760585" cy="398.38414265081417" r="0.44" style="fill: #1f77b4; stroke: #15537d; stroke-width: 1px;"/><circle class="node" cx="480.28923522426487" cy="391.42805639841515" r="0.44" style="fill: #1f77b4; stroke: #15537d; stroke-width: 1px;"/><circle class="node" cx="479.2152390492689" cy="404.762792690067" r="0.44" style="fill: #1f77b4; stroke: #15537d; stroke-width: 1px;"/><circle class="node" cx="480.5192441971643" cy="402.0157848947452" r="0.44" style="fill: #1f77b4; stroke: #15537d; stroke-width: 1px;"/><circle class="node" cx="477.6499054507681" cy="411.1290080201078" r="0.44" style="fill: #1f77b4; stroke: #15537d; stroke-width: 1px;"/><circle class="node" cx="479.35631544418504" cy="404.39323098450075" r="0.44" style="fill: #1f77b4; stroke: #15537d; stroke-width: 1px;"/><circle class="node" cx="480.1678607543357" cy="404.4003834897163" r="0.44" style="fill: #1f77b4; stroke: #15537d; stroke-width: 1px;"/><circle class="node" cx="485.5057148088753" cy="396.5852963643544" r="0.44" style="fill: #1f77b4; stroke: #15537d; stroke-width: 1px;"/><circle class="node" cx="488.6689747581824" cy="406.9910438333748" r="0.44" style="fill: #1f77b4; stroke: #15537d; stroke-width: 1px;"/><circle class="node" cx="471.21788020554607" cy="399.15030925548285" r="0.44" style="fill: #1f77b4; stroke: #15537d; stroke-width: 1px;"/><circle class="node" cx="470.8822303258794" cy="393.3129927048751" r="0.44" style="fill: #1f77b4; stroke: #15537d; stroke-width: 1px;"/><circle class="node" cx="480.84227673494206" cy="392.78151963957214" r="0.44" style="fill: #1f77b4; stroke: #15537d; stroke-width: 1px;"/><circle class="node" cx="474.51250960733046" cy="399.33735611580977" r="0.44" style="fill: #1f77b4; stroke: #15537d; stroke-width: 1px;"/><circle class="node" cx="476.1777913279513" cy="394.99031930053997" r="0.44" style="fill: #1f77b4; stroke: #15537d; stroke-width: 1px;"/><circle class="node" cx="475.5906188020892" cy="395.51378756293497" r="0.44" style="fill: #1f77b4; stroke: #15537d; stroke-width: 1px;"/><circle class="node" cx="477.25800492436474" cy="404.46356569690255" r="0.44" style="fill: #1f77b4; stroke: #15537d; stroke-width: 1px;"/></g></svg>