<?xml version="1.0" standalone="no"?>
<svg xmlns="http://www.w3.org/2000/svg" width="960" height="800"><g id="links"><line class="link" stroke="#999999" stroke-opacity="0.8" x1="490.7552021141009" y1="395.23312184922696" x2="481.99764956556567" y2="400.70308277447106"/><line class="link" stroke="#999999" stroke-opacity="0.8" x1="490.7552021141009" y1="395.23312184922696" x2="490.2752984047916" y2="404.58027795004574"/><line class="link" stroke="#999999" stroke-opacity="0.8" x1="490.7552021141009" y1="395.23312184922696" x2="482.3563655750226" y2="393.6290166823042"/><line class="link" stroke="#999999" stroke-opacity="0.8" x1="478.22527332899483" y1="403.6817472012143" x2="468.6702079353941" y2="403.1438104450597"/><line class="link" stroke="#999999" stroke-opacity="0.8" x1="478.22527332899483" y1="403.6817472012143" x2="483.1095948569844" y2="410.821010323394"/><line class="link" stroke="#999999" stroke-opacity="0.8" x1="478.22527332899483" y1="403.6817472012143" x2="474.5158778587116" y2="395.45859152149797"/><line class="link" stroke="#999999" stroke-opacity="0.8" x1="481.138702926371" y1="406.635714211017" x2="476.7409854004648" y2="397.4762703826417"/><line class="link" stroke="#999999" stroke-opacity="0.8" x1="481.138702926371" y1="406.635714211017" x2="487.033519213214" y2="398.10852967599357"/><line class="link" stroke="#999999" stroke-opacity="0.8" x1="481.138702926371" y1="406.635714211017" x2="486.2378083515351" y2="398.6748379421095"/><line class="link" stroke="#999999" stroke-opacity="0.8" x1="481.138702926371" y1="406.635714211017" x2="478.93331730286644" y2="394.910496770754"/><line class="link" stroke="#999999" stroke-opacity="0.8" x1="481.138702926371" y1="406.635714211017" x2="478.165736573286" y2="399.41425281326207"/><line class="link" stroke="#999999" stroke-opacity="0.8" x1="482.3563655750226" y1="393.6290166823042" x2="487.7057371134837" y2="401.21629483439455"/><line class="link" stroke="#999999" stroke-opacity="0.8" x1="482.3563655750226" y1="393.6290166823042" x2="478.80117685302264" y2="403.85259052136485"/><line class="link" stroke="#999999" stroke-opacity="0.8" x1="482.3563655750226" y1="393.6290166823042" x2="474.5158778587116" y2="395.45859152149797"/><line class="link" stroke="#999999" stroke-opacity="0.8" x1="478.93331730286644" y1="394.910496770754" x2="470.0568384845673" y2="397.6506209957445"/><line class="link" stroke="#999999" stroke-opacity="0.8" x1="478.93331730286644" y1="394.910496770754" x2="487.7057371134837" y2="401.21629483439455"/><line class="link" stroke="#999999" stroke-opacity="0.8" x1="478.93331730286644" y1="394.910496770754" x2="478.80117685302264" y2="403.85259052136485"/><line class="link" stroke="#999999" stroke-opacity="0.8" x1="478.93331730286644" y1="394.910496770754" x2="486.2378083515351" y2="398.6748379421095"/><line class="link" stroke="#999999" stroke-opacity="0.8" x1="478.93331730286644" y1="394.910496770754" x2="478.3412601130874" y2="404.95538983203517"/><line class="link" stroke="#999999" stroke-opacity="0.8" x1="487.7057371134837" y1="401.21629483439455" x2="478.80117685302264" y2="403.85259052136485"/><line class="link" stroke="#999999" stroke-opacity="0.8" x1="487.7057371134837" y1="401.21629483439455" x2="478.3412601130874" y2="404.95538983203517"/><line class="link" stroke="#999999" stroke-opacity="0.8" x1="468.6702079353941" y1="403.1438104450597" x2="474.5158778587116" y2="395.45859152149797"/><line class="link" stroke="#999999" stroke-opacity="0.8" x1="468.6702079353941" y1="403.1438104450597" x2="476.7409854004648" y2="397.4762703826417"/><line class="link" stroke="#999999" stroke-opacity="0.8" x1="479.141061701126" y1="391.0330099011829" x2="470.0568384845673" y2="397.6506209957445"/><line class="link" stroke="#999999" stroke-opacity="0.8" x1="479.141061701126" y1="391.0330099011829" x2="476.4818818871508" y2="400.25901917634525"/><line class="link" stroke="#999999" stroke-opacity="0.8" x1="479.141061701126" y1="391.0330099011829" x2="487.033519213214" y2="398.10852967599357"/><line class="link" stroke="#999999" stroke-opacity="0.8" x1="479.141061701126" y1="391.0330099011829" x2="478.165736573286" y2="399.41425281326207"/><line class="link" stroke="#999999" stroke-opacity="0.8" x1="474.5158778587116" y1="395.45859152149797" x2="481.99764956556567" y2="400.70308277447106"/><line class="link" stroke="#999999" stroke-opacity="0.8" x1="474.5158778587116" y1="395.45859152149797" x2="486.2378083515351" y2="398.6748379421095"/><line class="link" stroke="#999999" stroke-opacity="0.8" x1="474.5158778587116" y1="395.45859152149797" x2="478.3412601130874" y2="404.95538983203517"/><line class="link" stroke="#999999" stroke-opacity="0.8" x1="470.0568384845673" y1="397.6506209957445" x2="470.54324849451075" y2="407.8053312477296"/><line class="link" stroke="#999999" stroke-opacity="0.8" x1="470.0568384845673" y1="397.6506209957445" x2="478.80117685302264" y2="403.85259052136485"/><line class="link" stroke="#999999" stroke-opacity="0.8" x1="470.0568384845673" y1="397.6506209957445" x2="478.165736573286" y2="399.41425281326207"/><line class="link" stroke="#999999" stroke-opacity="0.8" x1="470.54324849451075" y1="407.8053312477296" x2="478.80117685302264" y2="403.85259052136485"/><line class="link" stroke="#999999" stroke-opacity="0.8" x1="470.54324849451075" y1="407.8053312477296" x2="476.4818818871508" y2="400.25901917634525"/><line class="link" stroke="#999999" stroke-opacity="0.8" x1="481.99764956556567" y1="400.70308277447106" x2="483.1095948569844" y2="410.821010323394"/><line class="link" stroke="#999999" stroke-opacity="0.8" x1="481.99764956556567" y1="400.70308277447106" x2="490.2752984047916" y2="404.58027795004574"/><line class="link" stroke="#999999" stroke-opacity="0.8" x1="487.033519213214" y1="398.10852967599357" x2="476.7409854004648" y2="397.4762703826417"/><line class="link" stroke="#999999" stroke-opacity="0.8" x1="487.033519213214" y1="398.10852967599357" x2="478.165736573286" y2="399.41425281326207"/><line class="link" stroke="#999999" stroke-opacity="0.8" x1="490.2752984047916" y1="404.58027795004574" x2="483.1095948569844" y2="410.821010323394"/><line class="link" stroke="#999999" stroke-opacity="0.8" x1="476.7409854004648" y1="397.4762703826417" x2="486.2378083515351" y2="398.6748379421095"/><line class="link" stroke="#999999" stroke-opacity="0.8" x1="486.2378083515351" y1="398.6748379421095" x2="478.3412601130874" y2="404.95538983203517"/></g><g id="nodes"><circle class="node" cx="490.7552021141009" cy="395.23312184922696" r="0.44" style="fill: #00ffff; stroke: #00b2b2; stroke-width: 1px;"/><circle class="node" cx="478.22527332899483" cy="403.6817472012143" r="0.44" style="fill: #00ffff; stroke: #00b2b2; stroke-width: 1px;"/><circle class="node" cx="481.138702926371" cy="406.635714211017" r="0.44" style="fill: #00ffff; stroke: #00b2b2; stroke-width: 1px;"/><circle class="node" cx="482.3563655750226" cy="393.6290166823042" r="0.44" style="fill: #00ffff; stroke: #00b2b2; stroke-width: 1px;"/><circle class="node" cx="478.93331730286644" cy="394.910496770754" r="0.44" style="fill: #00ffff; stroke: #00b2b2; stroke-width: 1px;"/><circle class="node" cx="487.7057371134837" cy="401.21629483439455" r="0.44" style="fill: #00ffff; stroke: #00b2b2; stroke-width: 1px;"/><circle class="node" cx="468.6702079353941" cy="403.1438104450597" r="0.44" style="fill: #00ffff; stroke: #00b2b2; stroke-width: 1px;"/><circle class="node" cx="479.141061701126" cy="391.0330099011829" r="0.44" style="fill: #00ffff; stroke: #00b2b2; stroke-width: 1px;"/><circle class="node" cx="474.5158778587116" cy="395.45859152149797" r="0.44" style="fill: #00ffff; stroke: #00b2b2; stroke-width: 1px;"/><circle class="node" cx="470.0568384845673" cy="397.6506209957445" r="0.44" style="fill: #00ffff; stroke: #00b2b2; stroke-width: 1px;"/><circle class="node" cx="470.54324849451075" cy="407.8053312477296" r="0.44" style="fill: #00ffff; stroke: #00b2b2; stroke-width: 1px;"/><circle class="node" cx="481.99764956556567" cy="400.70308277447106" r="0.44" style="fill: #00ffff; stroke: #00b2b2; stroke-width: 1px;"/><circle class="node" cx="487.033519213214" cy="398.10852967599357" r="0.44" style="fill: #00ffff; stroke: #00b2b2; stroke-width: 1px;"/><circle class="node" cx="490.2752984047916" cy="404.58027795004574" r="0.44" style="fill: #00ffff; stroke: #00b2b2; stroke-width: 1px;"/><circle class="node" cx="476.4818818871508" cy="400.25901917634525" r="0.44" style="fill: #00ffff; stroke: #00b2b2; stroke-width: 1px;"/><circle class="node" cx="483.1095948569844" cy="410.821010323394" r="0.44" style="fill: #00ffff; stroke: #00b2b2; stroke-width: 1px;"/><circle class="node" cx="476.7409854004648" cy="397.4762703826417" r="0.44" style="fill: #00ffff; stroke: #00b2b2; stroke-width: 1px;"/><circle class="node" cx="478.80117685302264" cy="403.85259052136485" r="0.44" style="fill: #00ffff; stroke: #00b2b2; stroke-width: 1px;"/><circle class="node" cx="486.2378083515351" cy="398.6748379421095" r="0.44" style="fill: #00ffff; stroke: #00b2b2; stroke-width: 1px;"/><circle class="node" cx="478.3412601130874" cy="404.95538983203517" r="0.44" style="fill: #00ffff; stroke: #00b2b2; stroke-width: 1px;"/><circle class="node" cx="478.165736573286" cy="399.41425281326207" r="0.44" style="fill: #00ffff; stroke: #00b2b2; stroke-width: 1px;"/></g></svg>