<?xml version="1.0" standalone="no"?>
<svg xmlns="http://www.w3.org/2000/svg" width="960" height="800"><g id="links"><line class="link" stroke="#999999" stroke-opacity="0.8" x1="485.09566201079394" y1="392.5536843235515" x2="484.00237125686095" y2="400.7217564672306"/><line class="link" stroke="#999999" stroke-opacity="0.8" x1="485.09566201079394" y1="392.5536843235515" x2="476.50877348197713" y2="390.7227717200382"/><line class="link" stroke="#999999" stroke-opacity="0.8" x1="485.09566201079394" y1="392.5536843235515" x2="475.20257982953956" y2="399.8947962324095"/><line class="link" stroke="#999999" stroke-opacity="0.8" x1="485.09566201079394" y1="392.5536843235515" x2="478.9755305797685" y2="399.45452588906096"/><line class="link" stroke="#999999" stroke-opacity="0.8" x1="481.8982003488528" y1="408.88184680653427" x2="477.44236663751616" y2="400.6800868441396"/><line class="link" stroke="#999999" stroke-opacity="0.8" x1="481.8982003488528" y1="408.88184680653427" x2="472.65141006535873" y2="404.5788717390134"/><line class="link" stroke="#999999" stroke-opacity="0.8" x1="481.8982003488528" y1="408.88184680653427" x2="488.10621833063306" y2="401.280091780831"/><line class="link" stroke="#999999" stroke-opacity="0.8" x1="475.68458061594635" y1="401.19363801873044" x2="480.98928263367526" y2="409.1090193261886"/><line class="link" stroke="#999999" stroke-opacity="0.8" x1="475.68458061594635" y1="401.19363801873044" x2="479.188845333231" y2="392.4544073174221"/><line class="link" stroke="#999999" stroke-opacity="0.8" x1="475.68458061594635" y1="401.19363801873044" x2="485.416262549596" y2="398.13922644345814"/><line class="link" stroke="#999999" stroke-opacity="0.8" x1="475.68458061594635" y1="401.19363801873044" x2="476.50877348197713" y2="390.7227717200382"/><line class="link" stroke="#999999" stroke-opacity="0.8" x1="479.188845333231" y1="392.4544073174221" x2="478.71333846994355" y2="404.81719750182924"/><line class="link" stroke="#999999" stroke-opacity="0.8" x1="479.188845333231" y1="392.4544073174221" x2="485.416262549596" y2="398.13922644345814"/><line class="link" stroke="#999999" stroke-opacity="0.8" x1="479.188845333231" y1="392.4544073174221" x2="472.89162305461616" y2="398.38975133189257"/><line class="link" stroke="#999999" stroke-opacity="0.8" x1="474.42326741889536" y1="401.00599246588496" x2="483.195812851879" y2="397.3978563847078"/><line class="link" stroke="#999999" stroke-opacity="0.8" x1="474.42326741889536" y1="401.00599246588496" x2="484.1360801809593" y2="397.45264601868604"/><line class="link" stroke="#999999" stroke-opacity="0.8" x1="474.42326741889536" y1="401.00599246588496" x2="481.5059591295608" y2="408.1268244235223"/><line class="link" stroke="#999999" stroke-opacity="0.8" x1="472.89162305461616" y1="398.38975133189257" x2="478.71333846994355" y2="404.81719750182924"/><line class="link" stroke="#999999" stroke-opacity="0.8" x1="472.89162305461616" y1="398.38975133189257" x2="484.1360801809593" y2="397.45264601868604"/><line class="link" stroke="#999999" stroke-opacity="0.8" x1="472.89162305461616" y1="398.38975133189257" x2="483.195812851879" y2="397.3978563847078"/><line class="link" stroke="#999999" stroke-opacity="0.8" x1="480.98928263367526" y1="409.1090193261886" x2="488.01653606827495" y2="402.001190845598"/><line class="link" stroke="#999999" stroke-opacity="0.8" x1="480.98928263367526" y1="409.1090193261886" x2="478.9755305797685" y2="399.45452588906096"/><line class="link" stroke="#999999" stroke-opacity="0.8" x1="476.50877348197713" y1="390.7227717200382" x2="485.416262549596" y2="398.13922644345814"/><line class="link" stroke="#999999" stroke-opacity="0.8" x1="476.50877348197713" y1="390.7227717200382" x2="475.20257982953956" y2="399.8947962324095"/><line class="link" stroke="#999999" stroke-opacity="0.8" x1="476.50877348197713" y1="390.7227717200382" x2="478.9755305797685" y2="399.45452588906096"/><line class="link" stroke="#999999" stroke-opacity="0.8" x1="488.10621833063306" y1="401.280091780831" x2="477.44236663751616" y2="400.6800868441396"/><line class="link" stroke="#999999" stroke-opacity="0.8" x1="488.10621833063306" y1="401.280091780831" x2="482.70139324192746" y2="393.0792199382959"/><line class="link" stroke="#999999" stroke-opacity="0.8" x1="488.10621833063306" y1="401.280091780831" x2="478.9755305797685" y2="399.45452588906096"/><line class="link" stroke="#999999" stroke-opacity="0.8" x1="485.416262549596" y1="398.13922644345814" x2="475.20257982953956" y2="399.8947962324095"/><line class="link" stroke="#999999" stroke-opacity="0.8" x1="485.416262549596" y1="398.13922644345814" x2="478.71333846994355" y2="404.81719750182924"/><line class="link" stroke="#999999" stroke-opacity="0.8" x1="475.20257982953956" y1="399.8947962324095" x2="484.00237125686095" y2="400.7217564672306"/><line class="link" stroke="#999999" stroke-opacity="0.8" x1="475.20257982953956" y1="399.8947962324095" x2="484.1360801809593" y2="397.45264601868604"/><line class="link" stroke="#999999" stroke-opacity="0.8" x1="475.20257982953956" y1="399.8947962324095" x2="481.5059591295608" y2="408.1268244235223"/><line class="link" stroke="#999999" stroke-opacity="0.8" x1="481.5059591295608" y1="408.1268244235223" x2="484.00237125686095" y2="400.7217564672306"/><line class="link" stroke="#999999" stroke-opacity="0.8" x1="481.5059591295608" y1="408.1268244235223" x2="472.65141006535873" y2="404.5788717390134"/><line class="link" stroke="#999999" stroke-opacity="0.8" x1="481.5059591295608" y1="408.1268244235223" x2="484.1360801809593" y2="397.45264601868604"/><line class="link" stroke="#999999" stroke-opacity="0.8" x1="484.00237125686095" y1="400.7217564672306" x2="472.65141006535873" y2="404.5788717390134"/><line class="link" stroke="#999999" stroke-opacity="0.8" x1="478.71333846994355" y1="404.81719750182924" x2="484.1360801809593" y2="397.45264601868604"/><line class="link" stroke="#999999" stroke-opacity="0.8" x1="477.44236663751616" y1="400.6800868441396" x2="482.70139324192746" y2="393.0792199382959"/><line class="link" stroke="#999999" stroke-opacity="0.8" x1="478.9755305797685" y1="399.45452588906096" x2="488.01653606827495" y2="402.001190845598"/><line class="link" stroke="#999999" stroke-opacity="0.8" x1="478.9755305797685" y1="399.45452588906096" x2="472.65141006535873" y2="404.5788717390134"/><line class="link" stroke="#999999" stroke-opacity="0.8" x1="488.01653606827495" y1="402.001190845598" x2="482.70139324192746" y2="393.0792199382959"/></g><g id="nodes"><circle class="node" cx="485.09566201079394" cy="392.5536843235515" r="0.44" style="fill: #00ffff; stroke: #00b2b2; stroke-width: 1px;"/><circle class="node" cx="481.8982003488528" cy="408.88184680653427" r="0.44" style="fill: #00ffff; stroke: #00b2b2; stroke-width: 1px;"/><circle class="node" cx="475.68458061594635" cy="401.19363801873044" r="0.44" style="fill: #00ffff; stroke: #00b2b2; stroke-width: 1px;"/><circle class="node" cx="479.188845333231" cy="392.4544073174221" r="0.44" style="fill: #00ffff; stroke: #00b2b2; stroke-width: 1px;"/><circle class="node" cx="474.42326741889536" cy="401.00599246588496" r="0.44" style="fill: #00ffff; stroke: #00b2b2; stroke-width: 1px;"/><circle class="node" cx="472.89162305461616" cy="398.38975133189257" r="0.44" style="fill: #00ffff; stroke: #00b2b2; stroke-width: 1px;"/><circle class="node" cx="480.98928263367526" cy="409.1090193261886" r="0.44" style="fill: #00ffff; stroke: #00b2b2; stroke-width: 1px;"/><circle class="node" cx="476.50877348197713" cy="390.7227717200382" r="0.44" style="fill: #00ffff; stroke: #00b2b2; stroke-width: 1px;"/><circle class="node" cx="488.10621833063306" cy="401.280091780831" r="0.44" style="fill: #00ffff; stroke: #00b2b2; stroke-width: 1px;"/><circle class="node" cx="485.416262549596" cy="398.13922644345814" r="0.44" style="fill: #00ffff; stroke: #00b2b2; stroke-width: 1px;"/><circle class="node" cx="475.20257982953956" cy="399.8947962324095" r="0.44" style="fill: #00ffff; stroke: #00b2b2; stroke-width: 1px;"/><circle class="node" cx="481.5059591295608" cy="408.1268244235223" r="0.44" style="fill: #00ffff; stroke: #00b2b2; stroke-width: 1px;"/><circle class="node" cx="483.195812851879" cy="397.3978563847078" r="0.44" style="fill: #00ffff; stroke: #00b2b2; stroke-width: 1px;"/><circle class="node" cx="484.00237125686095" cy="400.7217564672306" r="0.44" style="fill: #00ffff; stroke: #00b2b2; stroke-width: 1px;"/><circle class="node" cx="478.71333846994355" cy="404.81719750182924" r="0.44" style="fill: #00ffff; stroke: #00b2b2; stroke-width: 1px;"/><circle class="node" cx="477.44236663751616" cy="400.6800868441396" r="0.44" style="fill: #00ffff; stroke: #00b2b2; stroke-width: 1px;"/><circle class="node" cx="484.1360801809593" cy="397.45264601868604" r="0.44" style="fill: #00ffff; stroke: #00b2b2; stroke-width: 1px;"/><circle class="node" cx="478.9755305797685" cy="399.45452588906096" r="0.44" style="fill: #00ffff; stroke: #00b2b2; stroke-width: 1px;"/><circle class="node" cx="488.01653606827495" cy="402.001190845598" r="0.44" style="fill: #00ffff; stroke: #00b2b2; stroke-width: 1px;"/><circle class="node" cx="472.65141006535873" cy="404.5788717390134" r="0.44" style="fill: #00ffff; stroke: #00b2b2; stroke-width: 1px;"/><circle class="node" cx="482.70139324192746" cy="393.0792199382959" r="0.44" style="fill: #00ffff; stroke: #00b2b2; stroke-width: 1px;"/></g></svg>