<?xml version="1.0" standalone="no"?>
<svg xmlns="http://www.w3.org/2000/svg" width="960" height="800"><g id="links"><line class="link" stroke="gray" stroke-opacity="0.8" x1="485.03447326502675" y1="404.33082662650395" x2="478.92123458028703" y2="395.6358432875133"/><line class="link" stroke="gray" stroke-opacity="0.8" x1="485.03447326502675" y1="404.33082662650395" x2="475.03388151644253" y2="405.3257190494149"/><line class="link" stroke="gray" stroke-opacity="0.8" x1="485.03447326502675" y1="404.33082662650395" x2="479.92117194414357" y2="396.81135105461016"/><line class="link" stroke="gray" stroke-opacity="0.8" x1="472.7433398129784" y1="400.8262684584507" x2="480.8643268530615" y2="407.5275275417673"/><line class="link" stroke="gray" stroke-opacity="0.8" x1="472.7433398129784" y1="400.8262684584507" x2="479.9309677500602" y2="407.32207335004284"/><line class="link" stroke="gray" stroke-opacity="0.8" x1="472.7433398129784" y1="400.8262684584507" x2="481.4077464637195" y2="397.5718536699476"/><line class="link" stroke="gray" stroke-opacity="0.8" x1="472.7433398129784" y1="400.8262684584507" x2="482.14039419969276" y2="399.27817788842555"/><line class="link" stroke="gray" stroke-opacity="0.8" x1="472.7433398129784" y1="400.8262684584507" x2="483.5720075044037" y2="398.5303792708069"/><line class="link" stroke="gray" stroke-opacity="0.8" x1="478.6246500867667" y1="387.5480069191923" x2="488.11076221600536" y2="391.90060185341963"/><line class="link" stroke="gray" stroke-opacity="0.8" x1="478.6246500867667" y1="387.5480069191923" x2="479.2642745641134" y2="396.75610205030745"/><line class="link" stroke="gray" stroke-opacity="0.8" x1="478.6246500867667" y1="387.5480069191923" x2="479.92117194414357" y2="396.81135105461016"/><line class="link" stroke="gray" stroke-opacity="0.8" x1="479.0913311806181" y1="406.82543948119337" x2="482.89430936173216" y2="398.0452479241564"/><line class="link" stroke="gray" stroke-opacity="0.8" x1="479.0913311806181" y1="406.82543948119337" x2="474.2546451757113" y2="398.2481486318432"/><line class="link" stroke="gray" stroke-opacity="0.8" x1="479.92117194414357" y1="396.81135105461016" x2="475.03388151644253" y2="405.3257190494149"/><line class="link" stroke="gray" stroke-opacity="0.8" x1="472.9549448909282" y1="398.84685958491514" x2="482.09442394894927" y2="404.56927142157906"/><line class="link" stroke="gray" stroke-opacity="0.8" x1="472.9549448909282" y1="398.84685958491514" x2="478.03768867985923" y2="407.4780714686812"/><line class="link" stroke="gray" stroke-opacity="0.8" x1="472.9549448909282" y1="398.84685958491514" x2="482.89430936173216" y2="398.0452479241564"/><line class="link" stroke="gray" stroke-opacity="0.8" x1="472.9549448909282" y1="398.84685958491514" x2="482.14039419969276" y2="399.27817788842555"/><line class="link" stroke="gray" stroke-opacity="0.8" x1="472.9549448909282" y1="398.84685958491514" x2="481.25033200748493" y2="392.4302611003305"/><line class="link" stroke="gray" stroke-opacity="0.8" x1="482.09442394894927" y1="404.56927142157906" x2="478.92123458028703" y2="395.6358432875133"/><line class="link" stroke="gray" stroke-opacity="0.8" x1="482.09442394894927" y1="404.56927142157906" x2="479.2642745641134" y2="396.75610205030745"/><line class="link" stroke="gray" stroke-opacity="0.8" x1="482.09442394894927" y1="404.56927142157906" x2="481.25033200748493" y2="392.4302611003305"/><line class="link" stroke="gray" stroke-opacity="0.8" x1="483.5720075044037" y1="398.5303792708069" x2="478.03768867985923" y2="407.4780714686812"/><line class="link" stroke="gray" stroke-opacity="0.8" x1="483.5720075044037" y1="398.5303792708069" x2="479.9309677500602" y2="407.32207335004284"/><line class="link" stroke="gray" stroke-opacity="0.8" x1="483.5720075044037" y1="398.5303792708069" x2="474.2546451757113" y2="398.2481486318432"/><line class="link" stroke="gray" stroke-opacity="0.8" x1="479.2642745641134" y1="396.75610205030745" x2="480.8643268530615" y2="407.5275275417673"/><line class="link" stroke="gray" stroke-opacity="0.8" x1="479.2642745641134" y1="396.75610205030745" x2="475.03388151644253" y2="405.3257190494149"/><line class="link" stroke="gray" stroke-opacity="0.8" x1="479.2642745641134" y1="396.75610205030745" x2="488.11076221600536" y2="391.90060185341963"/><line class="link" stroke="gray" stroke-opacity="0.8" x1="479.2642745641134" y1="396.75610205030745" x2="489.3677751834558" y2="400.47839693075827"/><line class="link" stroke="gray" stroke-opacity="0.8" x1="489.3677751834558" y1="400.47839693075827" x2="480.8643268530615" y2="407.5275275417673"/><line class="link" stroke="gray" stroke-opacity="0.8" x1="489.3677751834558" y1="400.47839693075827" x2="482.14039419969276" y2="399.27817788842555"/><line class="link" stroke="gray" stroke-opacity="0.8" x1="489.3677751834558" y1="400.47839693075827" x2="481.25033200748493" y2="392.4302611003305"/><line class="link" stroke="gray" stroke-opacity="0.8" x1="481.4077464637195" y1="397.5718536699476" x2="488.11076221600536" y2="391.90060185341963"/><line class="link" stroke="gray" stroke-opacity="0.8" x1="481.4077464637195" y1="397.5718536699476" x2="480.8643268530615" y2="407.5275275417673"/><line class="link" stroke="gray" stroke-opacity="0.8" x1="481.4077464637195" y1="397.5718536699476" x2="479.9309677500602" y2="407.32207335004284"/><line class="link" stroke="gray" stroke-opacity="0.8" x1="482.14039419969276" y1="399.27817788842555" x2="480.8643268530615" y2="407.5275275417673"/><line class="link" stroke="gray" stroke-opacity="0.8" x1="482.14039419969276" y1="399.27817788842555" x2="481.25033200748493" y2="392.4302611003305"/><line class="link" stroke="gray" stroke-opacity="0.8" x1="482.14039419969276" y1="399.27817788842555" x2="478.03768867985923" y2="407.4780714686812"/><line class="link" stroke="gray" stroke-opacity="0.8" x1="474.2546451757113" y1="398.2481486318432" x2="479.9309677500602" y2="407.32207335004284"/><line class="link" stroke="gray" stroke-opacity="0.8" x1="474.2546451757113" y1="398.2481486318432" x2="478.03768867985923" y2="407.4780714686812"/><line class="link" stroke="gray" stroke-opacity="0.8" x1="478.92123458028703" y1="395.6358432875133" x2="475.03388151644253" y2="405.3257190494149"/><line class="link" stroke="gray" stroke-opacity="0.8" x1="478.03768867985923" y1="407.4780714686812" x2="482.89430936173216" y2="398.0452479241564"/></g><g id="nodes"><circle class="node" cx="485.03447326502675" cy="404.33082662650395" r="0.44" style="fill: #1f77b4; stroke: #15537d; stroke-width: 1px;"/><circle class="node" cx="472.7433398129784" cy="400.8262684584507" r="0.44" style="fill: #1f77b4; stroke: #15537d; stroke-width: 1px;"/><circle class="node" cx="478.6246500867667" cy="387.5480069191923" r="0.44" style="fill: #1f77b4; stroke: #15537d; stroke-width: 1px;"/><circle class="node" cx="479.0913311806181" cy="406.82543948119337" r="0.44" style="fill: #1f77b4; stroke: #15537d; stroke-width: 1px;"/><circle class="node" cx="479.92117194414357" cy="396.81135105461016" r="0.44" style="fill: #1f77b4; stroke: #15537d; stroke-width: 1px;"/><circle class="node" cx="472.9549448909282" cy="398.84685958491514" r="0.44" style="fill: #1f77b4; stroke: #15537d; stroke-width: 1px;"/><circle class="node" cx="482.09442394894927" cy="404.56927142157906" r="0.44" style="fill: #1f77b4; stroke: #15537d; stroke-width: 1px;"/><circle class="node" cx="483.5720075044037" cy="398.5303792708069" r="0.44" style="fill: #1f77b4; stroke: #15537d; stroke-width: 1px;"/><circle class="node" cx="479.2642745641134" cy="396.75610205030745" r="0.44" style="fill: #1f77b4; stroke: #15537d; stroke-width: 1px;"/><circle class="node" cx="489.3677751834558" cy="400.47839693075827" r="0.44" style="fill: #1f77b4; stroke: #15537d; stroke-width: 1px;"/><circle class="node" cx="481.4077464637195" cy="397.5718536699476" r="0.44" style="fill: #1f77b4; stroke: #15537d; stroke-width: 1px;"/><circle class="node" cx="482.14039419969276" cy="399.27817788842555" r="0.44" style="fill: #1f77b4; stroke: #15537d; stroke-width: 1px;"/><circle class="node" cx="474.2546451757113" cy="398.2481486318432" r="0.44" style="fill: #1f77b4; stroke: #15537d; stroke-width: 1px;"/><circle class="node" cx="480.8643268530615" cy="407.5275275417673" r="0.44" style="fill: #1f77b4; stroke: #15537d; stroke-width: 1px;"/><circle class="node" cx="488.11076221600536" cy="391.90060185341963" r="0.44" style="fill: #1f77b4; stroke: #15537d; stroke-width: 1px;"/><circle class="node" cx="478.92123458028703" cy="395.6358432875133" r="0.44" style="fill: #1f77b4; stroke: #15537d; stroke-width: 1px;"/><circle class="node" cx="475.03388151644253" cy="405.3257190494149" r="0.44" style="fill: #1f77b4; stroke: #15537d; stroke-width: 1px;"/><circle class="node" cx="481.25033200748493" cy="392.4302611003305" r="0.44" style="fill: #1f77b4; stroke: #15537d; stroke-width: 1px;"/><circle class="node" cx="478.03768867985923" cy="407.4780714686812" r="0.44" style="fill: #1f77b4; stroke: #15537d; stroke-width: 1px;"/><circle class="node" cx="479.9309677500602" cy="407.32207335004284" r="0.44" style="fill: #1f77b4; stroke: #15537d; stroke-width: 1px;"/><circle class="node" cx="482.89430936173216" cy="398.0452479241564" r="0.44" style="fill: #1f77b4; stroke: #15537d; stroke-width: 1px;"/></g></svg>