<?xml version="1.0" standalone="no"?>
<svg xmlns="http://www.w3.org/2000/svg" width="960" height="800"><g id="links"><line class="link" stroke="gray" stroke-opacity="0.8" x1="475.4283099363038" y1="397.79240284242087" x2="482.89081173754306" y2="403.7143164040463"/><line class="link" stroke="gray" stroke-opacity="0.8" x1="475.4283099363038" y1="397.79240284242087" x2="485.69153713798926" y2="395.21162327722027"/><line class="link" stroke="gray" stroke-opacity="0.8" x1="475.4283099363038" y1="397.79240284242087" x2="478.344512959131" y2="389.42247318811354"/><line class="link" stroke="gray" stroke-opacity="0.8" x1="475.4283099363038" y1="397.79240284242087" x2="473.801692702722" y2="406.8387226207731"/><line class="link" stroke="gray" stroke-opacity="0.8" x1="482.89081173754306" y1="403.7143164040463" x2="475.0196068630469" y2="396.9978899125666"/><line class="link" stroke="gray" stroke-opacity="0.8" x1="482.89081173754306" y1="403.7143164040463" x2="473.801692702722" y2="406.8387226207731"/><line class="link" stroke="gray" stroke-opacity="0.8" x1="482.89081173754306" y1="403.7143164040463" x2="482.8287023250429" y2="392.82478929869177"/><line class="link" stroke="gray" stroke-opacity="0.8" x1="482.89081173754306" y1="403.7143164040463" x2="485.69153713798926" y2="395.21162327722027"/><line class="link" stroke="gray" stroke-opacity="0.8" x1="480.18726770149254" y1="394.56378698697546" x2="474.7265073364162" y2="402.8347023616785"/><line class="link" stroke="gray" stroke-opacity="0.8" x1="480.18726770149254" y1="394.56378698697546" x2="477.8319996796189" y2="405.688882704662"/><line class="link" stroke="gray" stroke-opacity="0.8" x1="480.18726770149254" y1="394.56378698697546" x2="476.52578594524755" y2="402.51785954425986"/><line class="link" stroke="gray" stroke-opacity="0.8" x1="480.18726770149254" y1="394.56378698697546" x2="486.6380294104884" y2="401.91420437902616"/><line class="link" stroke="gray" stroke-opacity="0.8" x1="474.96653315301745" y1="401.86931966588276" x2="484.27669732812655" y2="405.61359355034415"/><line class="link" stroke="gray" stroke-opacity="0.8" x1="474.96653315301745" y1="401.86931966588276" x2="482.4050214820305" y2="396.10768552743946"/><line class="link" stroke="gray" stroke-opacity="0.8" x1="474.96653315301745" y1="401.86931966588276" x2="485.1553067521463" y2="399.12642156445514"/><line class="link" stroke="gray" stroke-opacity="0.8" x1="478.9425969991216" y1="399.31834796935425" x2="480.06417137687623" y2="409.01507960735944"/><line class="link" stroke="gray" stroke-opacity="0.8" x1="478.9425969991216" y1="399.31834796935425" x2="478.344512959131" y2="389.42247318811354"/><line class="link" stroke="gray" stroke-opacity="0.8" x1="486.6380294104884" y1="401.91420437902616" x2="476.4967937752996" y2="399.87619877571467"/><line class="link" stroke="gray" stroke-opacity="0.8" x1="486.6380294104884" y1="401.91420437902616" x2="480.06417137687623" y2="409.01507960735944"/><line class="link" stroke="gray" stroke-opacity="0.8" x1="486.6380294104884" y1="401.91420437902616" x2="476.52578594524755" y2="402.51785954425986"/><line class="link" stroke="gray" stroke-opacity="0.8" x1="486.6380294104884" y1="401.91420437902616" x2="482.8287023250429" y2="392.82478929869177"/><line class="link" stroke="gray" stroke-opacity="0.8" x1="475.99379107442746" y1="396.1960445918665" x2="477.8319996796189" y2="405.688882704662"/><line class="link" stroke="gray" stroke-opacity="0.8" x1="475.99379107442746" y1="396.1960445918665" x2="485.1553067521463" y2="399.12642156445514"/><line class="link" stroke="gray" stroke-opacity="0.8" x1="475.99379107442746" y1="396.1960445918665" x2="473.801692702722" y2="406.8387226207731"/><line class="link" stroke="gray" stroke-opacity="0.8" x1="480.06417137687623" y1="409.01507960735944" x2="476.4967937752996" y2="399.87619877571467"/><line class="link" stroke="gray" stroke-opacity="0.8" x1="477.8319996796189" y1="405.688882704662" x2="475.0196068630469" y2="396.9978899125666"/><line class="link" stroke="gray" stroke-opacity="0.8" x1="477.8319996796189" y1="405.688882704662" x2="482.4050214820305" y2="396.10768552743946"/><line class="link" stroke="gray" stroke-opacity="0.8" x1="477.8319996796189" y1="405.688882704662" x2="485.1553067521463" y2="399.12642156445514"/><line class="link" stroke="gray" stroke-opacity="0.8" x1="477.8319996796189" y1="405.688882704662" x2="485.90935026696013" y2="401.2332080397892"/><line class="link" stroke="gray" stroke-opacity="0.8" x1="485.90935026696013" y1="401.2332080397892" x2="475.0196068630469" y2="396.9978899125666"/><line class="link" stroke="gray" stroke-opacity="0.8" x1="485.90935026696013" y1="401.2332080397892" x2="476.52578594524755" y2="402.51785954425986"/><line class="link" stroke="gray" stroke-opacity="0.8" x1="485.90935026696013" y1="401.2332080397892" x2="482.8287023250429" y2="392.82478929869177"/><line class="link" stroke="gray" stroke-opacity="0.8" x1="473.801692702722" y1="406.8387226207731" x2="475.0196068630469" y2="396.9978899125666"/><line class="link" stroke="gray" stroke-opacity="0.8" x1="482.8287023250429" y1="392.82478929869177" x2="475.0196068630469" y2="396.9978899125666"/><line class="link" stroke="gray" stroke-opacity="0.8" x1="482.8287023250429" y1="392.82478929869177" x2="476.52578594524755" y2="402.51785954425986"/><line class="link" stroke="gray" stroke-opacity="0.8" x1="482.8287023250429" y1="392.82478929869177" x2="476.4967937752996" y2="399.87619877571467"/><line class="link" stroke="gray" stroke-opacity="0.8" x1="478.344512959131" y1="389.42247318811354" x2="476.4967937752996" y2="399.87619877571467"/><line class="link" stroke="gray" stroke-opacity="0.8" x1="478.344512959131" y1="389.42247318811354" x2="485.69153713798926" y2="395.21162327722027"/><line class="link" stroke="gray" stroke-opacity="0.8" x1="485.69153713798926" y1="395.21162327722027" x2="476.4967937752996" y2="399.87619877571467"/><line class="link" stroke="gray" stroke-opacity="0.8" x1="474.7265073364162" y1="402.8347023616785" x2="484.27669732812655" y2="405.61359355034415"/><line class="link" stroke="gray" stroke-opacity="0.8" x1="474.7265073364162" y1="402.8347023616785" x2="482.4050214820305" y2="396.10768552743946"/><line class="link" stroke="gray" stroke-opacity="0.8" x1="482.4050214820305" y1="396.10768552743946" x2="484.27669732812655" y2="405.61359355034415"/></g><g id="nodes"><circle class="node" cx="475.4283099363038" cy="397.79240284242087" r="0.44" style="fill: #1f77b4; stroke: #15537d; stroke-width: 1px;"/><circle class="node" cx="482.89081173754306" cy="403.7143164040463" r="0.44" style="fill: #1f77b4; stroke: #15537d; stroke-width: 1px;"/><circle class="node" cx="480.18726770149254" cy="394.56378698697546" r="0.44" style="fill: #1f77b4; stroke: #15537d; stroke-width: 1px;"/><circle class="node" cx="474.96653315301745" cy="401.86931966588276" r="0.44" style="fill: #1f77b4; stroke: #15537d; stroke-width: 1px;"/><circle class="node" cx="478.9425969991216" cy="399.31834796935425" r="0.44" style="fill: #1f77b4; stroke: #15537d; stroke-width: 1px;"/><circle class="node" cx="486.6380294104884" cy="401.91420437902616" r="0.44" style="fill: #1f77b4; stroke: #15537d; stroke-width: 1px;"/><circle class="node" cx="475.99379107442746" cy="396.1960445918665" r="0.44" style="fill: #1f77b4; stroke: #15537d; stroke-width: 1px;"/><circle class="node" cx="480.06417137687623" cy="409.01507960735944" r="0.44" style="fill: #1f77b4; stroke: #15537d; stroke-width: 1px;"/><circle class="node" cx="477.8319996796189" cy="405.688882704662" r="0.44" style="fill: #1f77b4; stroke: #15537d; stroke-width: 1px;"/><circle class="node" cx="485.90935026696013" cy="401.2332080397892" r="0.44" style="fill: #1f77b4; stroke: #15537d; stroke-width: 1px;"/><circle class="node" cx="473.801692702722" cy="406.8387226207731" r="0.44" style="fill: #1f77b4; stroke: #15537d; stroke-width: 1px;"/><circle class="node" cx="482.8287023250429" cy="392.82478929869177" r="0.44" style="fill: #1f77b4; stroke: #15537d; stroke-width: 1px;"/><circle class="node" cx="478.344512959131" cy="389.42247318811354" r="0.44" style="fill: #1f77b4; stroke: #15537d; stroke-width: 1px;"/><circle class="node" cx="475.0196068630469" cy="396.9978899125666" r="0.44" style="fill: #1f77b4; stroke: #15537d; stroke-width: 1px;"/><circle class="node" cx="485.69153713798926" cy="395.21162327722027" r="0.44" style="fill: #1f77b4; stroke: #15537d; stroke-width: 1px;"/><circle class="node" cx="474.7265073364162" cy="402.8347023616785" r="0.44" style="fill: #1f77b4; stroke: #15537d; stroke-width: 1px;"/><circle class="node" cx="482.4050214820305" cy="396.10768552743946" r="0.44" style="fill: #1f77b4; stroke: #15537d; stroke-width: 1px;"/><circle class="node" cx="484.27669732812655" cy="405.61359355034415" r="0.44" style="fill: #1f77b4; stroke: #15537d; stroke-width: 1px;"/><circle class="node" cx="476.52578594524755" cy="402.51785954425986" r="0.44" style="fill: #1f77b4; stroke: #15537d; stroke-width: 1px;"/><circle class="node" cx="476.4967937752996" cy="399.87619877571467" r="0.44" style="fill: #1f77b4; stroke: #15537d; stroke-width: 1px;"/><circle class="node" cx="485.1553067521463" cy="399.12642156445514" r="0.44" style="fill: #1f77b4; stroke: #15537d; stroke-width: 1px;"/></g></svg>