<?xml version="1.0" standalone="no"?>
<svg xmlns="http://www.w3.org/2000/svg" width="960" height="800"><g id="links"><line class="link" stroke="#999999" stroke-opacity="0.8" x1="480.2283221274919" y1="401.820738732299" x2="474.4690384444836" y2="394.748640318904"/><line class="link" stroke="#999999" stroke-opacity="0.8" x1="480.2283221274919" y1="401.820738732299" x2="474.4500809113281" y2="392.2338606293449"/><line class="link" stroke="#999999" stroke-opacity="0.8" x1="480.2283221274919" y1="401.820738732299" x2="484.27672425165264" y2="392.52570165183613"/><line class="link" stroke="#999999" stroke-opacity="0.8" x1="474.4690384444836" y1="394.748640318904" x2="483.19225635934754" y2="401.45461650882646"/><line class="link" stroke="#999999" stroke-opacity="0.8" x1="474.4690384444836" y1="394.748640318904" x2="483.47200222756993" y2="397.33139250740606"/><line class="link" stroke="#999999" stroke-opacity="0.8" x1="474.4690384444836" y1="394.748640318904" x2="484.27672425165264" y2="392.52570165183613"/><line class="link" stroke="#999999" stroke-opacity="0.8" x1="483.19225635934754" y1="401.45461650882646" x2="474.94600543653723" y2="404.0078268820921"/><line class="link" stroke="#999999" stroke-opacity="0.8" x1="483.19225635934754" y1="401.45461650882646" x2="484.27672425165264" y2="392.52570165183613"/><line class="link" stroke="#999999" stroke-opacity="0.8" x1="487.5289384568656" y1="398.1447052567849" x2="483.75953059524323" y2="407.0156762836114"/><line class="link" stroke="#999999" stroke-opacity="0.8" x1="487.5289384568656" y1="398.1447052567849" x2="478.3684241383475" y2="396.0925004028805"/><line class="link" stroke="#999999" stroke-opacity="0.8" x1="487.5289384568656" y1="398.1447052567849" x2="483.6523212284335" y2="392.6065261791573"/><line class="link" stroke="#999999" stroke-opacity="0.8" x1="487.5289384568656" y1="398.1447052567849" x2="477.5614883506031" y2="400.32063530921016"/><line class="link" stroke="#999999" stroke-opacity="0.8" x1="487.5289384568656" y1="398.1447052567849" x2="480.85843364128004" y2="406.3876436792883"/><line class="link" stroke="#999999" stroke-opacity="0.8" x1="487.5289384568656" y1="398.1447052567849" x2="489.97001601684656" y2="404.62044117753675"/><line class="link" stroke="#999999" stroke-opacity="0.8" x1="483.6523212284335" y1="392.6065261791573" x2="477.5614883506031" y2="400.32063530921016"/><line class="link" stroke="#999999" stroke-opacity="0.8" x1="483.6523212284335" y1="392.6065261791573" x2="489.97001601684656" y2="404.62044117753675"/><line class="link" stroke="#999999" stroke-opacity="0.8" x1="483.6523212284335" y1="392.6065261791573" x2="474.4500809113281" y2="392.2338606293449"/><line class="link" stroke="#999999" stroke-opacity="0.8" x1="474.14248920811366" y1="394.19610510259827" x2="474.94600543653723" y2="404.0078268820921"/><line class="link" stroke="#999999" stroke-opacity="0.8" x1="474.14248920811366" y1="394.19610510259827" x2="483.47200222756993" y2="397.33139250740606"/><line class="link" stroke="#999999" stroke-opacity="0.8" x1="474.14248920811366" y1="394.19610510259827" x2="472.25368641255284" y2="403.8100717281986"/><line class="link" stroke="#999999" stroke-opacity="0.8" x1="481.1512348990506" y1="396.64018222008167" x2="483.75953059524323" y2="407.0156762836114"/><line class="link" stroke="#999999" stroke-opacity="0.8" x1="481.1512348990506" y1="396.64018222008167" x2="472.1142816687246" y2="399.3017033186069"/><line class="link" stroke="#999999" stroke-opacity="0.8" x1="481.1512348990506" y1="396.64018222008167" x2="482.94000098327683" y2="405.589120345983"/><line class="link" stroke="#999999" stroke-opacity="0.8" x1="481.1512348990506" y1="396.64018222008167" x2="473.68922538365854" y2="404.1943351182024"/><line class="link" stroke="#999999" stroke-opacity="0.8" x1="480.85843364128004" y1="406.3876436792883" x2="472.25368641255284" y2="403.8100717281986"/><line class="link" stroke="#999999" stroke-opacity="0.8" x1="480.85843364128004" y1="406.3876436792883" x2="478.3684241383475" y2="396.0925004028805"/><line class="link" stroke="#999999" stroke-opacity="0.8" x1="480.85843364128004" y1="406.3876436792883" x2="483.47200222756993" y2="397.33139250740606"/><line class="link" stroke="#999999" stroke-opacity="0.8" x1="480.85843364128004" y1="406.3876436792883" x2="489.97001601684656" y2="404.62044117753675"/><line class="link" stroke="#999999" stroke-opacity="0.8" x1="483.75953059524323" y1="407.0156762836114" x2="474.12742377880994" y2="408.97890643353526"/><line class="link" stroke="#999999" stroke-opacity="0.8" x1="483.75953059524323" y1="407.0156762836114" x2="477.5614883506031" y2="400.32063530921016"/><line class="link" stroke="#999999" stroke-opacity="0.8" x1="483.75953059524323" y1="407.0156762836114" x2="473.68922538365854" y2="404.1943351182024"/><line class="link" stroke="#999999" stroke-opacity="0.8" x1="474.12742377880994" y1="408.97890643353526" x2="477.5614883506031" y2="400.32063530921016"/><line class="link" stroke="#999999" stroke-opacity="0.8" x1="474.12742377880994" y1="408.97890643353526" x2="472.1142816687246" y2="399.3017033186069"/><line class="link" stroke="#999999" stroke-opacity="0.8" x1="474.94600543653723" y1="404.0078268820921" x2="483.47200222756993" y2="397.33139250740606"/><line class="link" stroke="#999999" stroke-opacity="0.8" x1="482.94000098327683" y1="405.589120345983" x2="472.25368641255284" y2="403.8100717281986"/><line class="link" stroke="#999999" stroke-opacity="0.8" x1="482.94000098327683" y1="405.589120345983" x2="478.3684241383475" y2="396.0925004028805"/><line class="link" stroke="#999999" stroke-opacity="0.8" x1="482.94000098327683" y1="405.589120345983" x2="473.68922538365854" y2="404.1943351182024"/><line class="link" stroke="#999999" stroke-opacity="0.8" x1="474.4500809113281" y1="392.2338606293449" x2="477.5614883506031" y2="400.32063530921016"/><line class="link" stroke="#999999" stroke-opacity="0.8" x1="474.4500809113281" y1="392.2338606293449" x2="483.47200222756993" y2="397.33139250740606"/><line class="link" stroke="#999999" stroke-opacity="0.8" x1="478.3684241383475" y1="396.0925004028805" x2="472.25368641255284" y2="403.8100717281986"/><line class="link" stroke="#999999" stroke-opacity="0.8" x1="478.3684241383475" y1="396.0925004028805" x2="473.68922538365854" y2="404.1943351182024"/><line class="link" stroke="#999999" stroke-opacity="0.8" x1="483.47200222756993" y1="397.33139250740606" x2="489.97001601684656" y2="404.62044117753675"/></g><g id="nodes"><circle class="node" cx="480.2283221274919" cy="401.820738732299" r="0.44" style="fill: #00ffff; stroke: #00b2b2; stroke-width: 1px;"/><circle class="node" cx="474.4690384444836" cy="394.748640318904" r="0.44" style="fill: #00ffff; stroke: #00b2b2; stroke-width: 1px;"/><circle class="node" cx="483.19225635934754" cy="401.45461650882646" r="0.44" style="fill: #00ffff; stroke: #00b2b2; stroke-width: 1px;"/><circle class="node" cx="484.27672425165264" cy="392.52570165183613" r="0.44" style="fill: #00ffff; stroke: #00b2b2; stroke-width: 1px;"/><circle class="node" cx="487.5289384568656" cy="398.1447052567849" r="0.44" style="fill: #00ffff; stroke: #00b2b2; stroke-width: 1px;"/><circle class="node" cx="483.6523212284335" cy="392.6065261791573" r="0.44" style="fill: #00ffff; stroke: #00b2b2; stroke-width: 1px;"/><circle class="node" cx="474.14248920811366" cy="394.19610510259827" r="0.44" style="fill: #00ffff; stroke: #00b2b2; stroke-width: 1px;"/><circle class="node" cx="481.1512348990506" cy="396.64018222008167" r="0.44" style="fill: #00ffff; stroke: #00b2b2; stroke-width: 1px;"/><circle class="node" cx="480.85843364128004" cy="406.3876436792883" r="0.44" style="fill: #00ffff; stroke: #00b2b2; stroke-width: 1px;"/><circle class="node" cx="483.75953059524323" cy="407.0156762836114" r="0.44" style="fill: #00ffff; stroke: #00b2b2; stroke-width: 1px;"/><circle class="node" cx="474.12742377880994" cy="408.97890643353526" r="0.44" style="fill: #00ffff; stroke: #00b2b2; stroke-width: 1px;"/><circle class="node" cx="474.94600543653723" cy="404.0078268820921" r="0.44" style="fill: #00ffff; stroke: #00b2b2; stroke-width: 1px;"/><circle class="node" cx="482.94000098327683" cy="405.589120345983" r="0.44" style="fill: #00ffff; stroke: #00b2b2; stroke-width: 1px;"/><circle class="node" cx="474.4500809113281" cy="392.2338606293449" r="0.44" style="fill: #00ffff; stroke: #00b2b2; stroke-width: 1px;"/><circle class="node" cx="472.1142816687246" cy="399.3017033186069" r="0.44" style="fill: #00ffff; stroke: #00b2b2; stroke-width: 1px;"/><circle class="node" cx="478.3684241383475" cy="396.0925004028805" r="0.44" style="fill: #00ffff; stroke: #00b2b2; stroke-width: 1px;"/><circle class="node" cx="472.25368641255284" cy="403.8100717281986" r="0.44" style="fill: #00ffff; stroke: #00b2b2; stroke-width: 1px;"/><circle class="node" cx="477.5614883506031" cy="400.32063530921016" r="0.44" style="fill: #00ffff; stroke: #00b2b2; stroke-width: 1px;"/><circle class="node" cx="483.47200222756993" cy="397.33139250740606" r="0.44" style="fill: #00ffff; stroke: #00b2b2; stroke-width: 1px;"/><circle class="node" cx="489.97001601684656" cy="404.62044117753675" r="0.44" style="fill: #00ffff; stroke: #00b2b2; stroke-width: 1px;"/><circle class="node" cx="473.68922538365854" cy="404.1943351182024" r="0.44" style="fill: #00ffff; stroke: #00b2b2; stroke-width: 1px;"/></g></svg>