<?xml version="1.0" standalone="no"?>
<svg xmlns="http://www.w3.org/2000/svg" width="960" height="800"><g id="links"><line class="link" stroke="#999999" stroke-opacity="0.8" x1="471.7892067556895" y1="407.1186078795957" x2="471.1462017893643" y2="399.0520835634769"/><line class="link" stroke="#999999" stroke-opacity="0.8" x1="471.7892067556895" y1="407.1186078795957" x2="479.2363665419916" y2="409.12538947467664"/><line class="link" stroke="#999999" stroke-opacity="0.8" x1="471.7892067556895" y1="407.1186078795957" x2="482.1571208116121" y2="401.86796529500043"/><line class="link" stroke="#999999" stroke-opacity="0.8" x1="471.7892067556895" y1="407.1186078795957" x2="475.7126305549998" y2="398.119128624326"/><line class="link" stroke="#999999" stroke-opacity="0.8" x1="484.19829185303786" y1="400.2993457711681" x2="473.8999743756422" y2="395.7988265539995"/><line class="link" stroke="#999999" stroke-opacity="0.8" x1="484.19829185303786" y1="400.2993457711681" x2="477.99015217600174" y2="406.43412507743926"/><line class="link" stroke="#999999" stroke-opacity="0.8" x1="484.19829185303786" y1="400.2993457711681" x2="482.6018156567358" y2="391.88831307365126"/><line class="link" stroke="#999999" stroke-opacity="0.8" x1="484.463984549908" y1="401.0482704689104" x2="478.1827931568559" y2="407.45154947962203"/><line class="link" stroke="#999999" stroke-opacity="0.8" x1="484.463984549908" y1="401.0482704689104" x2="481.01128452327816" y2="393.2134928915053"/><line class="link" stroke="#999999" stroke-opacity="0.8" x1="484.463984549908" y1="401.0482704689104" x2="473.1669713626463" y2="399.67406183050576"/><line class="link" stroke="#999999" stroke-opacity="0.8" x1="484.463984549908" y1="401.0482704689104" x2="479.2363665419916" y2="409.12538947467664"/><line class="link" stroke="#999999" stroke-opacity="0.8" x1="481.01128452327816" y1="393.2134928915053" x2="480.84797431336284" y2="403.3088460749168"/><line class="link" stroke="#999999" stroke-opacity="0.8" x1="481.01128452327816" y1="393.2134928915053" x2="473.1669713626463" y2="399.67406183050576"/><line class="link" stroke="#999999" stroke-opacity="0.8" x1="481.01128452327816" y1="393.2134928915053" x2="488.9115739486777" y2="401.5179428901062"/><line class="link" stroke="#999999" stroke-opacity="0.8" x1="482.2976735829701" y1="403.40455728102705" x2="481.2240999725954" y2="394.3149606287268"/><line class="link" stroke="#999999" stroke-opacity="0.8" x1="482.2976735829701" y1="403.40455728102705" x2="485.8376309434677" y2="393.2347226435076"/><line class="link" stroke="#999999" stroke-opacity="0.8" x1="482.2976735829701" y1="403.40455728102705" x2="477.2215316230823" y2="394.4945764506512"/><line class="link" stroke="#999999" stroke-opacity="0.8" x1="488.9115739486777" y1="401.5179428901062" x2="480.84797431336284" y2="403.3088460749168"/><line class="link" stroke="#999999" stroke-opacity="0.8" x1="488.9115739486777" y1="401.5179428901062" x2="485.8376309434677" y2="393.2347226435076"/><line class="link" stroke="#999999" stroke-opacity="0.8" x1="488.9115739486777" y1="401.5179428901062" x2="481.2240999725954" y2="394.3149606287268"/><line class="link" stroke="#999999" stroke-opacity="0.8" x1="478.1827931568559" y1="407.45154947962203" x2="485.8763579404026" y2="399.11558891455087"/><line class="link" stroke="#999999" stroke-opacity="0.8" x1="478.1827931568559" y1="407.45154947962203" x2="475.7126305549998" y2="398.119128624326"/><line class="link" stroke="#999999" stroke-opacity="0.8" x1="479.2363665419916" y1="409.12538947467664" x2="473.1669713626463" y2="399.67406183050576"/><line class="link" stroke="#999999" stroke-opacity="0.8" x1="479.2363665419916" y1="409.12538947467664" x2="482.1571208116121" y2="401.86796529500043"/><line class="link" stroke="#999999" stroke-opacity="0.8" x1="479.2363665419916" y1="409.12538947467664" x2="475.7126305549998" y2="398.119128624326"/><line class="link" stroke="#999999" stroke-opacity="0.8" x1="482.6018156567358" y1="391.88831307365126" x2="473.8999743756422" y2="395.7988265539995"/><line class="link" stroke="#999999" stroke-opacity="0.8" x1="482.6018156567358" y1="391.88831307365126" x2="478.41788316269117" y2="403.0980264471829"/><line class="link" stroke="#999999" stroke-opacity="0.8" x1="482.6018156567358" y1="391.88831307365126" x2="475.7126305549998" y2="398.119128624326"/><line class="link" stroke="#999999" stroke-opacity="0.8" x1="473.1669713626463" y1="399.67406183050576" x2="482.1571208116121" y2="401.86796529500043"/><line class="link" stroke="#999999" stroke-opacity="0.8" x1="473.1669713626463" y1="399.67406183050576" x2="480.84797431336284" y2="403.3088460749168"/><line class="link" stroke="#999999" stroke-opacity="0.8" x1="482.1571208116121" y1="401.86796529500043" x2="471.1462017893643" y2="399.0520835634769"/><line class="link" stroke="#999999" stroke-opacity="0.8" x1="482.1571208116121" y1="401.86796529500043" x2="485.8376309434677" y2="393.2347226435076"/><line class="link" stroke="#999999" stroke-opacity="0.8" x1="482.1571208116121" y1="401.86796529500043" x2="477.2215316230823" y2="394.4945764506512"/><line class="link" stroke="#999999" stroke-opacity="0.8" x1="477.2215316230823" y1="394.4945764506512" x2="471.1462017893643" y2="399.0520835634769"/><line class="link" stroke="#999999" stroke-opacity="0.8" x1="477.2215316230823" y1="394.4945764506512" x2="477.99015217600174" y2="406.43412507743926"/><line class="link" stroke="#999999" stroke-opacity="0.8" x1="477.2215316230823" y1="394.4945764506512" x2="485.8376309434677" y2="393.2347226435076"/><line class="link" stroke="#999999" stroke-opacity="0.8" x1="471.1462017893643" y1="399.0520835634769" x2="477.99015217600174" y2="406.43412507743926"/><line class="link" stroke="#999999" stroke-opacity="0.8" x1="480.84797431336284" y1="403.3088460749168" x2="485.8376309434677" y2="393.2347226435076"/><line class="link" stroke="#999999" stroke-opacity="0.8" x1="473.8999743756422" y1="395.7988265539995" x2="478.41788316269117" y2="403.0980264471829"/><line class="link" stroke="#999999" stroke-opacity="0.8" x1="475.7126305549998" y1="398.119128624326" x2="485.8763579404026" y2="399.11558891455087"/><line class="link" stroke="#999999" stroke-opacity="0.8" x1="475.7126305549998" y1="398.119128624326" x2="477.99015217600174" y2="406.43412507743926"/><line class="link" stroke="#999999" stroke-opacity="0.8" x1="485.8763579404026" y1="399.11558891455087" x2="478.41788316269117" y2="403.0980264471829"/></g><g id="nodes"><circle class="node" cx="471.7892067556895" cy="407.1186078795957" r="0.44" style="fill: #00ffff; stroke: #00b2b2; stroke-width: 1px;"/><circle class="node" cx="484.19829185303786" cy="400.2993457711681" r="0.44" style="fill: #00ffff; stroke: #00b2b2; stroke-width: 1px;"/><circle class="node" cx="484.463984549908" cy="401.0482704689104" r="0.44" style="fill: #00ffff; stroke: #00b2b2; stroke-width: 1px;"/><circle class="node" cx="481.01128452327816" cy="393.2134928915053" r="0.44" style="fill: #00ffff; stroke: #00b2b2; stroke-width: 1px;"/><circle class="node" cx="482.2976735829701" cy="403.40455728102705" r="0.44" style="fill: #00ffff; stroke: #00b2b2; stroke-width: 1px;"/><circle class="node" cx="488.9115739486777" cy="401.5179428901062" r="0.44" style="fill: #00ffff; stroke: #00b2b2; stroke-width: 1px;"/><circle class="node" cx="478.1827931568559" cy="407.45154947962203" r="0.44" style="fill: #00ffff; stroke: #00b2b2; stroke-width: 1px;"/><circle class="node" cx="479.2363665419916" cy="409.12538947467664" r="0.44" style="fill: #00ffff; stroke: #00b2b2; stroke-width: 1px;"/><circle class="node" cx="482.6018156567358" cy="391.88831307365126" r="0.44" style="fill: #00ffff; stroke: #00b2b2; stroke-width: 1px;"/><circle class="node" cx="473.1669713626463" cy="399.67406183050576" r="0.44" style="fill: #00ffff; stroke: #00b2b2; stroke-width: 1px;"/><circle class="node" cx="482.1571208116121" cy="401.86796529500043" r="0.44" style="fill: #00ffff; stroke: #00b2b2; stroke-width: 1px;"/><circle class="node" cx="477.2215316230823" cy="394.4945764506512" r="0.44" style="fill: #00ffff; stroke: #00b2b2; stroke-width: 1px;"/><circle class="node" cx="481.2240999725954" cy="394.3149606287268" r="0.44" style="fill: #00ffff; stroke: #00b2b2; stroke-width: 1px;"/><circle class="node" cx="471.1462017893643" cy="399.0520835634769" r="0.44" style="fill: #00ffff; stroke: #00b2b2; stroke-width: 1px;"/><circle class="node" cx="480.84797431336284" cy="403.3088460749168" r="0.44" style="fill: #00ffff; stroke: #00b2b2; stroke-width: 1px;"/><circle class="node" cx="473.8999743756422" cy="395.7988265539995" r="0.44" style="fill: #00ffff; stroke: #00b2b2; stroke-width: 1px;"/><circle class="node" cx="485.8376309434677" cy="393.2347226435076" r="0.44" style="fill: #00ffff; stroke: #00b2b2; stroke-width: 1px;"/><circle class="node" cx="475.7126305549998" cy="398.119128624326" r="0.44" style="fill: #00ffff; stroke: #00b2b2; stroke-width: 1px;"/><circle class="node" cx="485.8763579404026" cy="399.11558891455087" r="0.44" style="fill: #00ffff; stroke: #00b2b2; stroke-width: 1px;"/><circle class="node" cx="477.99015217600174" cy="406.43412507743926" r="0.44" style="fill: #00ffff; stroke: #00b2b2; stroke-width: 1px;"/><circle class="node" cx="478.41788316269117" cy="403.0980264471829" r="0.44" style="fill: #00ffff; stroke: #00b2b2; stroke-width: 1px;"/></g></svg>