<?xml version="1.0" standalone="no"?>
<svg xmlns="http://www.w3.org/2000/svg" width="960" height="800"><g id="links"><line class="link" stroke="#999999" stroke-opacity="0.8" x1="470.5218774065052" y1="401.18317981346644" x2="479.569981707147" y2="404.25402811663844"/><line class="link" stroke="#999999" stroke-opacity="0.8" x1="470.5218774065052" y1="401.18317981346644" x2="479.96967491066823" y2="404.4030265041639"/><line class="link" stroke="#999999" stroke-opacity="0.8" x1="470.5218774065052" y1="401.18317981346644" x2="477.3446662430799" y2="394.45860182044373"/><line class="link" stroke="#999999" stroke-opacity="0.8" x1="479.569981707147" y1="404.25402811663844" x2="486.41077124608694" y2="397.1870422161845"/><line class="link" stroke="#999999" stroke-opacity="0.8" x1="479.569981707147" y1="404.25402811663844" x2="470.5395979849997" y2="399.1414703497488"/><line class="link" stroke="#999999" stroke-opacity="0.8" x1="479.569981707147" y1="404.25402811663844" x2="477.3446662430799" y2="394.45860182044373"/><line class="link" stroke="#999999" stroke-opacity="0.8" x1="486.41077124608694" y1="397.1870422161845" x2="477.7016056936828" y2="391.73248649522645"/><line class="link" stroke="#999999" stroke-opacity="0.8" x1="486.41077124608694" y1="397.1870422161845" x2="477.3446662430799" y2="394.45860182044373"/><line class="link" stroke="#999999" stroke-opacity="0.8" x1="485.43333760847315" y1="405.2131078577719" x2="476.06388220451885" y2="403.1797058863531"/><line class="link" stroke="#999999" stroke-opacity="0.8" x1="485.43333760847315" y1="405.2131078577719" x2="487.98325542701843" y2="396.0535936294248"/><line class="link" stroke="#999999" stroke-opacity="0.8" x1="485.43333760847315" y1="405.2131078577719" x2="487.2529356000299" y2="397.4119175558258"/><line class="link" stroke="#999999" stroke-opacity="0.8" x1="485.43333760847315" y1="405.2131078577719" x2="479.3251229403867" y2="394.8354324117034"/><line class="link" stroke="#999999" stroke-opacity="0.8" x1="485.43333760847315" y1="405.2131078577719" x2="479.5619276397599" y2="396.6575809716617"/><line class="link" stroke="#999999" stroke-opacity="0.8" x1="485.43333760847315" y1="405.2131078577719" x2="477.4496807994431" y2="405.41348701035577"/><line class="link" stroke="#999999" stroke-opacity="0.8" x1="487.2529356000299" y1="397.4119175558258" x2="479.3251229403867" y2="394.8354324117034"/><line class="link" stroke="#999999" stroke-opacity="0.8" x1="487.2529356000299" y1="397.4119175558258" x2="477.4496807994431" y2="405.41348701035577"/><line class="link" stroke="#999999" stroke-opacity="0.8" x1="487.2529356000299" y1="397.4119175558258" x2="479.96967491066823" y2="404.4030265041639"/><line class="link" stroke="#999999" stroke-opacity="0.8" x1="479.694497209522" y1="400.37244534534085" x2="477.7016056936828" y2="391.73248649522645"/><line class="link" stroke="#999999" stroke-opacity="0.8" x1="479.694497209522" y1="400.37244534534085" x2="470.5395979849997" y2="399.1414703497488"/><line class="link" stroke="#999999" stroke-opacity="0.8" x1="479.694497209522" y1="400.37244534534085" x2="485.9216015918752" y2="405.6851769374037"/><line class="link" stroke="#999999" stroke-opacity="0.8" x1="486.1925010418663" y1="397.52570872307365" x2="476.06388220451885" y2="403.1797058863531"/><line class="link" stroke="#999999" stroke-opacity="0.8" x1="486.1925010418663" y1="397.52570872307365" x2="477.61036185674624" y2="398.6865242664909"/><line class="link" stroke="#999999" stroke-opacity="0.8" x1="486.1925010418663" y1="397.52570872307365" x2="477.47280508606957" y2="399.69403208479036"/><line class="link" stroke="#999999" stroke-opacity="0.8" x1="486.1925010418663" y1="397.52570872307365" x2="484.94806125549115" y2="406.5335573512763"/><line class="link" stroke="#999999" stroke-opacity="0.8" x1="479.5619276397599" y1="396.6575809716617" x2="485.9216015918752" y2="405.6851769374037"/><line class="link" stroke="#999999" stroke-opacity="0.8" x1="479.5619276397599" y1="396.6575809716617" x2="487.98325542701843" y2="396.0535936294248"/><line class="link" stroke="#999999" stroke-opacity="0.8" x1="479.5619276397599" y1="396.6575809716617" x2="470.5395979849997" y2="399.1414703497488"/><line class="link" stroke="#999999" stroke-opacity="0.8" x1="479.5619276397599" y1="396.6575809716617" x2="477.4496807994431" y2="405.41348701035577"/><line class="link" stroke="#999999" stroke-opacity="0.8" x1="476.06388220451885" y1="403.1797058863531" x2="469.2179361780764" y2="396.2122944510559"/><line class="link" stroke="#999999" stroke-opacity="0.8" x1="476.06388220451885" y1="403.1797058863531" x2="479.3251229403867" y2="394.8354324117034"/><line class="link" stroke="#999999" stroke-opacity="0.8" x1="476.06388220451885" y1="403.1797058863531" x2="484.94806125549115" y2="406.5335573512763"/><line class="link" stroke="#999999" stroke-opacity="0.8" x1="469.2179361780764" y1="396.2122944510559" x2="479.3251229403867" y2="394.8354324117034"/><line class="link" stroke="#999999" stroke-opacity="0.8" x1="469.2179361780764" y1="396.2122944510559" x2="477.61036185674624" y2="398.6865242664909"/><line class="link" stroke="#999999" stroke-opacity="0.8" x1="477.7016056936828" y1="391.73248649522645" x2="470.5395979849997" y2="399.1414703497488"/><line class="link" stroke="#999999" stroke-opacity="0.8" x1="477.47280508606957" y1="399.69403208479036" x2="485.9216015918752" y2="405.6851769374037"/><line class="link" stroke="#999999" stroke-opacity="0.8" x1="477.47280508606957" y1="399.69403208479036" x2="487.98325542701843" y2="396.0535936294248"/><line class="link" stroke="#999999" stroke-opacity="0.8" x1="477.47280508606957" y1="399.69403208479036" x2="484.94806125549115" y2="406.5335573512763"/><line class="link" stroke="#999999" stroke-opacity="0.8" x1="479.96967491066823" y1="404.4030265041639" x2="479.3251229403867" y2="394.8354324117034"/><line class="link" stroke="#999999" stroke-opacity="0.8" x1="479.96967491066823" y1="404.4030265041639" x2="470.5395979849997" y2="399.1414703497488"/><line class="link" stroke="#999999" stroke-opacity="0.8" x1="487.98325542701843" y1="396.0535936294248" x2="485.9216015918752" y2="405.6851769374037"/><line class="link" stroke="#999999" stroke-opacity="0.8" x1="487.98325542701843" y1="396.0535936294248" x2="484.94806125549115" y2="406.5335573512763"/><line class="link" stroke="#999999" stroke-opacity="0.8" x1="470.5395979849997" y1="399.1414703497488" x2="477.4496807994431" y2="405.41348701035577"/></g><g id="nodes"><circle class="node" cx="470.5218774065052" cy="401.18317981346644" r="0.44" style="fill: #00ffff; stroke: #00b2b2; stroke-width: 1px;"/><circle class="node" cx="479.569981707147" cy="404.25402811663844" r="0.44" style="fill: #00ffff; stroke: #00b2b2; stroke-width: 1px;"/><circle class="node" cx="486.41077124608694" cy="397.1870422161845" r="0.44" style="fill: #00ffff; stroke: #00b2b2; stroke-width: 1px;"/><circle class="node" cx="477.3446662430799" cy="394.45860182044373" r="0.44" style="fill: #00ffff; stroke: #00b2b2; stroke-width: 1px;"/><circle class="node" cx="485.43333760847315" cy="405.2131078577719" r="0.44" style="fill: #00ffff; stroke: #00b2b2; stroke-width: 1px;"/><circle class="node" cx="487.2529356000299" cy="397.4119175558258" r="0.44" style="fill: #00ffff; stroke: #00b2b2; stroke-width: 1px;"/><circle class="node" cx="479.694497209522" cy="400.37244534534085" r="0.44" style="fill: #00ffff; stroke: #00b2b2; stroke-width: 1px;"/><circle class="node" cx="486.1925010418663" cy="397.52570872307365" r="0.44" style="fill: #00ffff; stroke: #00b2b2; stroke-width: 1px;"/><circle class="node" cx="479.5619276397599" cy="396.6575809716617" r="0.44" style="fill: #00ffff; stroke: #00b2b2; stroke-width: 1px;"/><circle class="node" cx="476.06388220451885" cy="403.1797058863531" r="0.44" style="fill: #00ffff; stroke: #00b2b2; stroke-width: 1px;"/><circle class="node" cx="469.2179361780764" cy="396.2122944510559" r="0.44" style="fill: #00ffff; stroke: #00b2b2; stroke-width: 1px;"/><circle class="node" cx="477.7016056936828" cy="391.73248649522645" r="0.44" style="fill: #00ffff; stroke: #00b2b2; stroke-width: 1px;"/><circle class="node" cx="477.47280508606957" cy="399.69403208479036" r="0.44" style="fill: #00ffff; stroke: #00b2b2; stroke-width: 1px;"/><circle class="node" cx="479.96967491066823" cy="404.4030265041639" r="0.44" style="fill: #00ffff; stroke: #00b2b2; stroke-width: 1px;"/><circle class="node" cx="477.61036185674624" cy="398.6865242664909" r="0.44" style="fill: #00ffff; stroke: #00b2b2; stroke-width: 1px;"/><circle class="node" cx="487.98325542701843" cy="396.0535936294248" r="0.44" style="fill: #00ffff; stroke: #00b2b2; stroke-width: 1px;"/><circle class="node" cx="485.9216015918752" cy="405.6851769374037" r="0.44" style="fill: #00ffff; stroke: #00b2b2; stroke-width: 1px;"/><circle class="node" cx="479.3251229403867" cy="394.8354324117034" r="0.44" style="fill: #00ffff; stroke: #00b2b2; stroke-width: 1px;"/><circle class="node" cx="470.5395979849997" cy="399.1414703497488" r="0.44" style="fill: #00ffff; stroke: #00b2b2; stroke-width: 1px;"/><circle class="node" cx="477.4496807994431" cy="405.41348701035577" r="0.44" style="fill: #00ffff; stroke: #00b2b2; stroke-width: 1px;"/><circle class="node" cx="484.94806125549115" cy="406.5335573512763" r="0.44" style="fill: #00ffff; stroke: #00b2b2; stroke-width: 1px;"/></g></svg>