<?xml version="1.0" standalone="no"?>
<svg xmlns="http://www.w3.org/2000/svg" width="960" height="800"><g id="links"><line class="link" stroke="#999999" stroke-opacity="0.8" x1="483.88524558664426" y1="398.07574922766344" x2="477.67506265165434" y2="404.63377208794924"/><line class="link" stroke="#999999" stroke-opacity="0.8" x1="483.88524558664426" y1="398.07574922766344" x2="474.341703551001" y2="396.3637984810066"/><line class="link" stroke="#999999" stroke-opacity="0.8" x1="483.88524558664426" y1="398.07574922766344" x2="475.5789029384487" y2="405.2427823787348"/><line class="link" stroke="#999999" stroke-opacity="0.8" x1="475.83329403894317" y1="402.82050696361495" x2="479.0625003122741" y2="393.4370967798434"/><line class="link" stroke="#999999" stroke-opacity="0.8" x1="475.83329403894317" y1="402.82050696361495" x2="484.7209708207007" y2="400.0830146015733"/><line class="link" stroke="#999999" stroke-opacity="0.8" x1="475.83329403894317" y1="402.82050696361495" x2="486.2035465724249" y2="400.2071909555414"/><line class="link" stroke="#999999" stroke-opacity="0.8" x1="484.7209708207007" y1="400.0830146015733" x2="476.1130446282455" y2="405.7258195305137"/><line class="link" stroke="#999999" stroke-opacity="0.8" x1="484.7209708207007" y1="400.0830146015733" x2="474.84328772412147" y2="397.2183363980207"/><line class="link" stroke="#999999" stroke-opacity="0.8" x1="484.7209708207007" y1="400.0830146015733" x2="481.1837683413091" y2="390.6093909667844"/><line class="link" stroke="#999999" stroke-opacity="0.8" x1="474.341703551001" y1="396.3637984810066" x2="483.83469072383025" y2="403.1876787461811"/><line class="link" stroke="#999999" stroke-opacity="0.8" x1="474.341703551001" y1="396.3637984810066" x2="484.7999272834291" y2="398.7073422896608"/><line class="link" stroke="#999999" stroke-opacity="0.8" x1="474.341703551001" y1="396.3637984810066" x2="482.751893509748" y2="395.331488197471"/><line class="link" stroke="#999999" stroke-opacity="0.8" x1="474.341703551001" y1="396.3637984810066" x2="475.5789029384487" y2="405.2427823787348"/><line class="link" stroke="#999999" stroke-opacity="0.8" x1="479.8662293846955" y1="395.56204189891065" x2="486.9821989557835" y2="401.8191420255488"/><line class="link" stroke="#999999" stroke-opacity="0.8" x1="479.8662293846955" y1="395.56204189891065" x2="478.0951951909609" y2="405.79796863786873"/><line class="link" stroke="#999999" stroke-opacity="0.8" x1="479.8662293846955" y1="395.56204189891065" x2="470.9981690867771" y2="399.29010770689695"/><line class="link" stroke="#999999" stroke-opacity="0.8" x1="486.9821989557835" y1="401.8191420255488" x2="478.07361180599025" y2="396.5104481038437"/><line class="link" stroke="#999999" stroke-opacity="0.8" x1="486.9821989557835" y1="401.8191420255488" x2="478.0951951909609" y2="405.79796863786873"/><line class="link" stroke="#999999" stroke-opacity="0.8" x1="481.1837683413091" y1="390.6093909667844" x2="475.77922906648115" y2="399.89052765762904"/><line class="link" stroke="#999999" stroke-opacity="0.8" x1="481.1837683413091" y1="390.6093909667844" x2="484.7999272834291" y2="398.7073422896608"/><line class="link" stroke="#999999" stroke-opacity="0.8" x1="481.1837683413091" y1="390.6093909667844" x2="474.84328772412147" y2="397.2183363980207"/><line class="link" stroke="#999999" stroke-opacity="0.8" x1="481.1837683413091" y1="390.6093909667844" x2="486.2035465724249" y2="400.2071909555414"/><line class="link" stroke="#999999" stroke-opacity="0.8" x1="478.0951951909609" y1="405.79796863786873" x2="470.9981690867771" y2="399.29010770689695"/><line class="link" stroke="#999999" stroke-opacity="0.8" x1="478.0951951909609" y1="405.79796863786873" x2="486.2035465724249" y2="400.2071909555414"/><line class="link" stroke="#999999" stroke-opacity="0.8" x1="474.84328772412147" y1="397.2183363980207" x2="476.1130446282455" y2="405.7258195305137"/><line class="link" stroke="#999999" stroke-opacity="0.8" x1="474.84328772412147" y1="397.2183363980207" x2="484.7999272834291" y2="398.7073422896608"/><line class="link" stroke="#999999" stroke-opacity="0.8" x1="474.84328772412147" y1="397.2183363980207" x2="483.83469072383025" y2="403.1876787461811"/><line class="link" stroke="#999999" stroke-opacity="0.8" x1="484.7999272834291" y1="398.7073422896608" x2="483.817634445823" y2="406.8972897807883"/><line class="link" stroke="#999999" stroke-opacity="0.8" x1="484.7999272834291" y1="398.7073422896608" x2="475.77922906648115" y2="399.89052765762904"/><line class="link" stroke="#999999" stroke-opacity="0.8" x1="484.7999272834291" y1="398.7073422896608" x2="475.5789029384487" y2="405.2427823787348"/><line class="link" stroke="#999999" stroke-opacity="0.8" x1="475.5789029384487" y1="405.2427823787348" x2="483.817634445823" y2="406.8972897807883"/><line class="link" stroke="#999999" stroke-opacity="0.8" x1="475.5789029384487" y1="405.2427823787348" x2="478.07361180599025" y2="396.5104481038437"/><line class="link" stroke="#999999" stroke-opacity="0.8" x1="476.1130446282455" y1="405.7258195305137" x2="483.83469072383025" y2="403.1876787461811"/><line class="link" stroke="#999999" stroke-opacity="0.8" x1="476.1130446282455" y1="405.7258195305137" x2="482.751893509748" y2="395.331488197471"/><line class="link" stroke="#999999" stroke-opacity="0.8" x1="483.817634445823" y1="406.8972897807883" x2="475.77922906648115" y2="399.89052765762904"/><line class="link" stroke="#999999" stroke-opacity="0.8" x1="483.817634445823" y1="406.8972897807883" x2="478.07361180599025" y2="396.5104481038437"/><line class="link" stroke="#999999" stroke-opacity="0.8" x1="483.83469072383025" y1="403.1876787461811" x2="482.751893509748" y2="395.331488197471"/><line class="link" stroke="#999999" stroke-opacity="0.8" x1="482.751893509748" y1="395.331488197471" x2="477.67506265165434" y2="404.63377208794924"/><line class="link" stroke="#999999" stroke-opacity="0.8" x1="486.2035465724249" y1="400.2071909555414" x2="475.77922906648115" y2="399.89052765762904"/><line class="link" stroke="#999999" stroke-opacity="0.8" x1="486.2035465724249" y1="400.2071909555414" x2="479.0625003122741" y2="393.4370967798434"/><line class="link" stroke="#999999" stroke-opacity="0.8" x1="486.2035465724249" y1="400.2071909555414" x2="478.07361180599025" y2="396.5104481038437"/><line class="link" stroke="#999999" stroke-opacity="0.8" x1="479.0625003122741" y1="393.4370967798434" x2="470.9981690867771" y2="399.29010770689695"/></g><g id="nodes"><circle class="node" cx="483.88524558664426" cy="398.07574922766344" r="0.44" style="fill: #00ffff; stroke: #00b2b2; stroke-width: 1px;"/><circle class="node" cx="475.83329403894317" cy="402.82050696361495" r="0.44" style="fill: #00ffff; stroke: #00b2b2; stroke-width: 1px;"/><circle class="node" cx="484.7209708207007" cy="400.0830146015733" r="0.44" style="fill: #00ffff; stroke: #00b2b2; stroke-width: 1px;"/><circle class="node" cx="474.341703551001" cy="396.3637984810066" r="0.44" style="fill: #00ffff; stroke: #00b2b2; stroke-width: 1px;"/><circle class="node" cx="479.8662293846955" cy="395.56204189891065" r="0.44" style="fill: #00ffff; stroke: #00b2b2; stroke-width: 1px;"/><circle class="node" cx="486.9821989557835" cy="401.8191420255488" r="0.44" style="fill: #00ffff; stroke: #00b2b2; stroke-width: 1px;"/><circle class="node" cx="481.1837683413091" cy="390.6093909667844" r="0.44" style="fill: #00ffff; stroke: #00b2b2; stroke-width: 1px;"/><circle class="node" cx="478.0951951909609" cy="405.79796863786873" r="0.44" style="fill: #00ffff; stroke: #00b2b2; stroke-width: 1px;"/><circle class="node" cx="474.84328772412147" cy="397.2183363980207" r="0.44" style="fill: #00ffff; stroke: #00b2b2; stroke-width: 1px;"/><circle class="node" cx="484.7999272834291" cy="398.7073422896608" r="0.44" style="fill: #00ffff; stroke: #00b2b2; stroke-width: 1px;"/><circle class="node" cx="475.5789029384487" cy="405.2427823787348" r="0.44" style="fill: #00ffff; stroke: #00b2b2; stroke-width: 1px;"/><circle class="node" cx="476.1130446282455" cy="405.7258195305137" r="0.44" style="fill: #00ffff; stroke: #00b2b2; stroke-width: 1px;"/><circle class="node" cx="483.817634445823" cy="406.8972897807883" r="0.44" style="fill: #00ffff; stroke: #00b2b2; stroke-width: 1px;"/><circle class="node" cx="483.83469072383025" cy="403.1876787461811" r="0.44" style="fill: #00ffff; stroke: #00b2b2; stroke-width: 1px;"/><circle class="node" cx="482.751893509748" cy="395.331488197471" r="0.44" style="fill: #00ffff; stroke: #00b2b2; stroke-width: 1px;"/><circle class="node" cx="477.67506265165434" cy="404.63377208794924" r="0.44" style="fill: #00ffff; stroke: #00b2b2; stroke-width: 1px;"/><circle class="node" cx="486.2035465724249" cy="400.2071909555414" r="0.44" style="fill: #00ffff; stroke: #00b2b2; stroke-width: 1px;"/><circle class="node" cx="479.0625003122741" cy="393.4370967798434" r="0.44" style="fill: #00ffff; stroke: #00b2b2; stroke-width: 1px;"/><circle class="node" cx="478.07361180599025" cy="396.5104481038437" r="0.44" style="fill: #00ffff; stroke: #00b2b2; stroke-width: 1px;"/><circle class="node" cx="470.9981690867771" cy="399.29010770689695" r="0.44" style="fill: #00ffff; stroke: #00b2b2; stroke-width: 1px;"/><circle class="node" cx="475.77922906648115" cy="399.89052765762904" r="0.44" style="fill: #00ffff; stroke: #00b2b2; stroke-width: 1px;"/></g></svg>