<?xml version="1.0" standalone="no"?>
<svg xmlns="http://www.w3.org/2000/svg" width="960" height="800"><g id="links"><line class="link" stroke="gray" stroke-opacity="0.8" x1="472.4913659484641" y1="402.7917401614839" x2="483.35779648411574" y2="402.30809527552896"/><line class="link" stroke="gray" stroke-opacity="0.8" x1="472.4913659484641" y1="402.7917401614839" x2="480.99070173393125" y2="406.2482765898775"/><line class="link" stroke="gray" stroke-opacity="0.8" x1="472.4913659484641" y1="402.7917401614839" x2="478.177751352014" y2="395.0392672955881"/><line class="link" stroke="gray" stroke-opacity="0.8" x1="482.9317040394247" y1="394.9918267213724" x2="482.88510505361165" y2="404.7889571418045"/><line class="link" stroke="gray" stroke-opacity="0.8" x1="482.9317040394247" y1="394.9918267213724" x2="475.46824439851844" y2="401.9161604611206"/><line class="link" stroke="gray" stroke-opacity="0.8" x1="482.9317040394247" y1="394.9918267213724" x2="474.30208995100793" y2="399.87270777507496"/><line class="link" stroke="gray" stroke-opacity="0.8" x1="475.46824439851844" y1="401.9161604611206" x2="483.721973354726" y2="391.987675481517"/><line class="link" stroke="gray" stroke-opacity="0.8" x1="475.46824439851844" y1="401.9161604611206" x2="476.37248943452215" y2="393.6762572200204"/><line class="link" stroke="gray" stroke-opacity="0.8" x1="475.46824439851844" y1="401.9161604611206" x2="483.8882793501707" y2="402.24479746247374"/><line class="link" stroke="gray" stroke-opacity="0.8" x1="480.99070173393125" y1="406.2482765898775" x2="485.86836225019465" y2="399.6046774032874"/><line class="link" stroke="gray" stroke-opacity="0.8" x1="480.99070173393125" y1="406.2482765898775" x2="472.47892325866576" y2="402.0519531324361"/><line class="link" stroke="gray" stroke-opacity="0.8" x1="480.99070173393125" y1="406.2482765898775" x2="475.5125154884058" y2="397.65379614628125"/><line class="link" stroke="gray" stroke-opacity="0.8" x1="480.99070173393125" y1="406.2482765898775" x2="478.177751352014" y2="395.0392672955881"/><line class="link" stroke="gray" stroke-opacity="0.8" x1="483.9214211022279" y1="398.13149603210104" x2="488.76947662553334" y2="406.613036586418"/><line class="link" stroke="gray" stroke-opacity="0.8" x1="483.9214211022279" y1="398.13149603210104" x2="479.5135480026795" y2="407.5113707858727"/><line class="link" stroke="gray" stroke-opacity="0.8" x1="483.9214211022279" y1="398.13149603210104" x2="474.4970517480905" y2="398.7396878711742"/><line class="link" stroke="gray" stroke-opacity="0.8" x1="488.76947662553334" y1="406.613036586418" x2="485.97423048714757" y2="397.2578983320561"/><line class="link" stroke="gray" stroke-opacity="0.8" x1="488.76947662553334" y1="406.613036586418" x2="479.5135480026795" y2="407.5113707858727"/><line class="link" stroke="gray" stroke-opacity="0.8" x1="483.8882793501707" y1="402.24479746247374" x2="480.28203310953563" y2="393.7636637283978"/><line class="link" stroke="gray" stroke-opacity="0.8" x1="483.8882793501707" y1="402.24479746247374" x2="472.47892325866576" y2="402.0519531324361"/><line class="link" stroke="gray" stroke-opacity="0.8" x1="483.8882793501707" y1="402.24479746247374" x2="476.37248943452215" y2="393.6762572200204"/><line class="link" stroke="gray" stroke-opacity="0.8" x1="483.8882793501707" y1="402.24479746247374" x2="474.30208995100793" y2="399.87270777507496"/><line class="link" stroke="gray" stroke-opacity="0.8" x1="479.5135480026795" y1="407.5113707858727" x2="474.4970517480905" y2="398.7396878711742"/><line class="link" stroke="gray" stroke-opacity="0.8" x1="479.5135480026795" y1="407.5113707858727" x2="474.30208995100793" y2="399.87270777507496"/><line class="link" stroke="gray" stroke-opacity="0.8" x1="476.37248943452215" y1="393.6762572200204" x2="483.721973354726" y2="391.987675481517"/><line class="link" stroke="gray" stroke-opacity="0.8" x1="476.37248943452215" y1="393.6762572200204" x2="472.47892325866576" y2="402.0519531324361"/><line class="link" stroke="gray" stroke-opacity="0.8" x1="476.37248943452215" y1="393.6762572200204" x2="485.86836225019465" y2="399.6046774032874"/><line class="link" stroke="gray" stroke-opacity="0.8" x1="472.47892325866576" y1="402.0519531324361" x2="481.19710487118243" y2="404.7744982910115"/><line class="link" stroke="gray" stroke-opacity="0.8" x1="472.47892325866576" y1="402.0519531324361" x2="480.28203310953563" y2="393.7636637283978"/><line class="link" stroke="gray" stroke-opacity="0.8" x1="472.47892325866576" y1="402.0519531324361" x2="478.177751352014" y2="395.0392672955881"/><line class="link" stroke="gray" stroke-opacity="0.8" x1="478.177751352014" y1="395.0392672955881" x2="481.19710487118243" y2="404.7744982910115"/><line class="link" stroke="gray" stroke-opacity="0.8" x1="478.177751352014" y1="395.0392672955881" x2="485.97423048714757" y2="397.2578983320561"/><line class="link" stroke="gray" stroke-opacity="0.8" x1="483.721973354726" y1="391.987675481517" x2="485.86836225019465" y2="399.6046774032874"/><line class="link" stroke="gray" stroke-opacity="0.8" x1="483.721973354726" y1="391.987675481517" x2="475.5125154884058" y2="397.65379614628125"/><line class="link" stroke="gray" stroke-opacity="0.8" x1="481.19710487118243" y1="404.7744982910115" x2="480.28203310953563" y2="393.7636637283978"/><line class="link" stroke="gray" stroke-opacity="0.8" x1="481.19710487118243" y1="404.7744982910115" x2="485.97423048714757" y2="397.2578983320561"/><line class="link" stroke="gray" stroke-opacity="0.8" x1="485.86836225019465" y1="399.6046774032874" x2="475.5125154884058" y2="397.65379614628125"/><line class="link" stroke="gray" stroke-opacity="0.8" x1="475.5125154884058" y1="397.65379614628125" x2="483.35779648411574" y2="402.30809527552896"/><line class="link" stroke="gray" stroke-opacity="0.8" x1="474.30208995100793" y1="399.87270777507496" x2="480.28203310953563" y2="393.7636637283978"/><line class="link" stroke="gray" stroke-opacity="0.8" x1="474.30208995100793" y1="399.87270777507496" x2="482.88510505361165" y2="404.7889571418045"/><line class="link" stroke="gray" stroke-opacity="0.8" x1="474.30208995100793" y1="399.87270777507496" x2="485.97423048714757" y2="397.2578983320561"/><line class="link" stroke="gray" stroke-opacity="0.8" x1="482.88510505361165" y1="404.7889571418045" x2="474.4970517480905" y2="398.7396878711742"/></g><g id="nodes"><circle class="node" cx="472.4913659484641" cy="402.7917401614839" r="0.44" style="fill: #1f77b4; stroke: #15537d; stroke-width: 1px;"/><circle class="node" cx="482.9317040394247" cy="394.9918267213724" r="0.44" style="fill: #1f77b4; stroke: #15537d; stroke-width: 1px;"/><circle class="node" cx="475.46824439851844" cy="401.9161604611206" r="0.44" style="fill: #1f77b4; stroke: #15537d; stroke-width: 1px;"/><circle class="node" cx="480.99070173393125" cy="406.2482765898775" r="0.44" style="fill: #1f77b4; stroke: #15537d; stroke-width: 1px;"/><circle class="node" cx="483.9214211022279" cy="398.13149603210104" r="0.44" style="fill: #1f77b4; stroke: #15537d; stroke-width: 1px;"/><circle class="node" cx="488.76947662553334" cy="406.613036586418" r="0.44" style="fill: #1f77b4; stroke: #15537d; stroke-width: 1px;"/><circle class="node" cx="483.8882793501707" cy="402.24479746247374" r="0.44" style="fill: #1f77b4; stroke: #15537d; stroke-width: 1px;"/><circle class="node" cx="479.5135480026795" cy="407.5113707858727" r="0.44" style="fill: #1f77b4; stroke: #15537d; stroke-width: 1px;"/><circle class="node" cx="476.37248943452215" cy="393.6762572200204" r="0.44" style="fill: #1f77b4; stroke: #15537d; stroke-width: 1px;"/><circle class="node" cx="472.47892325866576" cy="402.0519531324361" r="0.44" style="fill: #1f77b4; stroke: #15537d; stroke-width: 1px;"/><circle class="node" cx="478.177751352014" cy="395.0392672955881" r="0.44" style="fill: #1f77b4; stroke: #15537d; stroke-width: 1px;"/><circle class="node" cx="483.721973354726" cy="391.987675481517" r="0.44" style="fill: #1f77b4; stroke: #15537d; stroke-width: 1px;"/><circle class="node" cx="481.19710487118243" cy="404.7744982910115" r="0.44" style="fill: #1f77b4; stroke: #15537d; stroke-width: 1px;"/><circle class="node" cx="485.86836225019465" cy="399.6046774032874" r="0.44" style="fill: #1f77b4; stroke: #15537d; stroke-width: 1px;"/><circle class="node" cx="475.5125154884058" cy="397.65379614628125" r="0.44" style="fill: #1f77b4; stroke: #15537d; stroke-width: 1px;"/><circle class="node" cx="483.35779648411574" cy="402.30809527552896" r="0.44" style="fill: #1f77b4; stroke: #15537d; stroke-width: 1px;"/><circle class="node" cx="474.30208995100793" cy="399.87270777507496" r="0.44" style="fill: #1f77b4; stroke: #15537d; stroke-width: 1px;"/><circle class="node" cx="482.88510505361165" cy="404.7889571418045" r="0.44" style="fill: #1f77b4; stroke: #15537d; stroke-width: 1px;"/><circle class="node" cx="485.97423048714757" cy="397.2578983320561" r="0.44" style="fill: #1f77b4; stroke: #15537d; stroke-width: 1px;"/><circle class="node" cx="474.4970517480905" cy="398.7396878711742" r="0.44" style="fill: #1f77b4; stroke: #15537d; stroke-width: 1px;"/><circle class="node" cx="480.28203310953563" cy="393.7636637283978" r="0.44" style="fill: #1f77b4; stroke: #15537d; stroke-width: 1px;"/></g></svg>