<?xml version="1.0" standalone="no"?>
<svg xmlns="http://www.w3.org/2000/svg" width="960" height="800"><g id="links"><line class="link" stroke="#999999" stroke-opacity="0.8" x1="477.8722805019596" y1="405.0784014238026" x2="479.95009372696137" y2="395.3556399889639"/><line class="link" stroke="#999999" stroke-opacity="0.8" x1="477.8722805019596" y1="405.0784014238026" x2="480.47179619288136" y2="395.78832728244726"/><line class="link" stroke="#999999" stroke-opacity="0.8" x1="477.8722805019596" y1="405.0784014238026" x2="471.5121502621767" y2="396.79723584759597"/><line class="link" stroke="#999999" stroke-opacity="0.8" x1="477.6125040068245" y1="395.97460958931475" x2="481.8379910385832" y2="405.024477322727"/><line class="link" stroke="#999999" stroke-opacity="0.8" x1="477.6125040068245" y1="395.97460958931475" x2="475.6297213682615" y2="405.6712446020026"/><line class="link" stroke="#999999" stroke-opacity="0.8" x1="477.6125040068245" y1="395.97460958931475" x2="487.83377341054927" y2="397.0120156114278"/><line class="link" stroke="#999999" stroke-opacity="0.8" x1="475.6297213682615" y1="405.6712446020026" x2="478.9503517716542" y2="396.144383901565"/><line class="link" stroke="#999999" stroke-opacity="0.8" x1="475.6297213682615" y1="405.6712446020026" x2="485.23460805035035" y2="403.5608399635266"/><line class="link" stroke="#999999" stroke-opacity="0.8" x1="475.6297213682615" y1="405.6712446020026" x2="478.320012096171" y2="395.9113401213385"/><line class="link" stroke="#999999" stroke-opacity="0.8" x1="480.47179619288136" y1="395.78832728244726" x2="489.35380245324495" y2="395.02823200716034"/><line class="link" stroke="#999999" stroke-opacity="0.8" x1="480.47179619288136" y1="395.78832728244726" x2="475.31102614262556" y2="404.900398656574"/><line class="link" stroke="#999999" stroke-opacity="0.8" x1="480.47179619288136" y1="395.78832728244726" x2="484.6997043901433" y2="404.3973676613464"/><line class="link" stroke="#999999" stroke-opacity="0.8" x1="480.47179619288136" y1="395.78832728244726" x2="471.5121502621767" y2="396.79723584759597"/><line class="link" stroke="#999999" stroke-opacity="0.8" x1="482.6413367083329" y1="401.80711711727133" x2="472.4210596164115" y2="398.97310785963913"/><line class="link" stroke="#999999" stroke-opacity="0.8" x1="482.6413367083329" y1="401.80711711727133" x2="479.3293290593599" y2="392.3654234511376"/><line class="link" stroke="#999999" stroke-opacity="0.8" x1="482.6413367083329" y1="401.80711711727133" x2="473.1440525256002" y2="400.32207722124906"/><line class="link" stroke="#999999" stroke-opacity="0.8" x1="472.4210596164115" y1="398.97310785963913" x2="479.99137628339076" y2="404.27839665438484"/><line class="link" stroke="#999999" stroke-opacity="0.8" x1="472.4210596164115" y1="398.97310785963913" x2="479.3293290593599" y2="392.3654234511376"/><line class="link" stroke="#999999" stroke-opacity="0.8" x1="478.320012096171" y1="395.9113401213385" x2="484.1576176600909" y2="405.30613686686235"/><line class="link" stroke="#999999" stroke-opacity="0.8" x1="478.320012096171" y1="395.9113401213385" x2="475.31102614262556" y2="404.900398656574"/><line class="link" stroke="#999999" stroke-opacity="0.8" x1="478.320012096171" y1="395.9113401213385" x2="485.23460805035035" y2="403.5608399635266"/><line class="link" stroke="#999999" stroke-opacity="0.8" x1="478.320012096171" y1="395.9113401213385" x2="487.83377341054927" y2="397.0120156114278"/><line class="link" stroke="#999999" stroke-opacity="0.8" x1="479.3293290593599" y1="392.3654234511376" x2="473.1440525256002" y2="400.32207722124906"/><line class="link" stroke="#999999" stroke-opacity="0.8" x1="479.3293290593599" y1="392.3654234511376" x2="487.83377341054927" y2="397.0120156114278"/><line class="link" stroke="#999999" stroke-opacity="0.8" x1="485.23460805035035" y1="403.5608399635266" x2="478.9503517716542" y2="396.144383901565"/><line class="link" stroke="#999999" stroke-opacity="0.8" x1="485.23460805035035" y1="403.5608399635266" x2="475.31102614262556" y2="404.900398656574"/><line class="link" stroke="#999999" stroke-opacity="0.8" x1="485.23460805035035" y1="403.5608399635266" x2="489.35380245324495" y2="395.02823200716034"/><line class="link" stroke="#999999" stroke-opacity="0.8" x1="475.31102614262556" y1="404.900398656574" x2="481.41380831087025" y2="395.48913851485884"/><line class="link" stroke="#999999" stroke-opacity="0.8" x1="475.31102614262556" y1="404.900398656574" x2="484.1576176600909" y2="405.30613686686235"/><line class="link" stroke="#999999" stroke-opacity="0.8" x1="475.31102614262556" y1="404.900398656574" x2="471.5121502621767" y2="396.79723584759597"/><line class="link" stroke="#999999" stroke-opacity="0.8" x1="471.5121502621767" y1="396.79723584759597" x2="481.41380831087025" y2="395.48913851485884"/><line class="link" stroke="#999999" stroke-opacity="0.8" x1="471.5121502621767" y1="396.79723584759597" x2="479.99137628339076" y2="404.27839665438484"/><line class="link" stroke="#999999" stroke-opacity="0.8" x1="478.9503517716542" y1="396.144383901565" x2="489.35380245324495" y2="395.02823200716034"/><line class="link" stroke="#999999" stroke-opacity="0.8" x1="478.9503517716542" y1="396.144383901565" x2="484.6997043901433" y2="404.3973676613464"/><line class="link" stroke="#999999" stroke-opacity="0.8" x1="481.41380831087025" y1="395.48913851485884" x2="484.1576176600909" y2="405.30613686686235"/><line class="link" stroke="#999999" stroke-opacity="0.8" x1="481.41380831087025" y1="395.48913851485884" x2="479.99137628339076" y2="404.27839665438484"/><line class="link" stroke="#999999" stroke-opacity="0.8" x1="489.35380245324495" y1="395.02823200716034" x2="484.6997043901433" y2="404.3973676613464"/><line class="link" stroke="#999999" stroke-opacity="0.8" x1="484.6997043901433" y1="404.3973676613464" x2="479.95009372696137" y2="395.3556399889639"/><line class="link" stroke="#999999" stroke-opacity="0.8" x1="487.83377341054927" y1="397.0120156114278" x2="484.1576176600909" y2="405.30613686686235"/><line class="link" stroke="#999999" stroke-opacity="0.8" x1="487.83377341054927" y1="397.0120156114278" x2="481.8379910385832" y2="405.024477322727"/><line class="link" stroke="#999999" stroke-opacity="0.8" x1="487.83377341054927" y1="397.0120156114278" x2="479.99137628339076" y2="404.27839665438484"/><line class="link" stroke="#999999" stroke-opacity="0.8" x1="481.8379910385832" y1="405.024477322727" x2="473.1440525256002" y2="400.32207722124906"/></g><g id="nodes"><circle class="node" cx="477.8722805019596" cy="405.0784014238026" r="0.44" style="fill: #00ffff; stroke: #00b2b2; stroke-width: 1px;"/><circle class="node" cx="477.6125040068245" cy="395.97460958931475" r="0.44" style="fill: #00ffff; stroke: #00b2b2; stroke-width: 1px;"/><circle class="node" cx="475.6297213682615" cy="405.6712446020026" r="0.44" style="fill: #00ffff; stroke: #00b2b2; stroke-width: 1px;"/><circle class="node" cx="480.47179619288136" cy="395.78832728244726" r="0.44" style="fill: #00ffff; stroke: #00b2b2; stroke-width: 1px;"/><circle class="node" cx="482.6413367083329" cy="401.80711711727133" r="0.44" style="fill: #00ffff; stroke: #00b2b2; stroke-width: 1px;"/><circle class="node" cx="472.4210596164115" cy="398.97310785963913" r="0.44" style="fill: #00ffff; stroke: #00b2b2; stroke-width: 1px;"/><circle class="node" cx="478.320012096171" cy="395.9113401213385" r="0.44" style="fill: #00ffff; stroke: #00b2b2; stroke-width: 1px;"/><circle class="node" cx="479.3293290593599" cy="392.3654234511376" r="0.44" style="fill: #00ffff; stroke: #00b2b2; stroke-width: 1px;"/><circle class="node" cx="485.23460805035035" cy="403.5608399635266" r="0.44" style="fill: #00ffff; stroke: #00b2b2; stroke-width: 1px;"/><circle class="node" cx="475.31102614262556" cy="404.900398656574" r="0.44" style="fill: #00ffff; stroke: #00b2b2; stroke-width: 1px;"/><circle class="node" cx="471.5121502621767" cy="396.79723584759597" r="0.44" style="fill: #00ffff; stroke: #00b2b2; stroke-width: 1px;"/><circle class="node" cx="478.9503517716542" cy="396.144383901565" r="0.44" style="fill: #00ffff; stroke: #00b2b2; stroke-width: 1px;"/><circle class="node" cx="481.41380831087025" cy="395.48913851485884" r="0.44" style="fill: #00ffff; stroke: #00b2b2; stroke-width: 1px;"/><circle class="node" cx="489.35380245324495" cy="395.02823200716034" r="0.44" style="fill: #00ffff; stroke: #00b2b2; stroke-width: 1px;"/><circle class="node" cx="484.6997043901433" cy="404.3973676613464" r="0.44" style="fill: #00ffff; stroke: #00b2b2; stroke-width: 1px;"/><circle class="node" cx="479.95009372696137" cy="395.3556399889639" r="0.44" style="fill: #00ffff; stroke: #00b2b2; stroke-width: 1px;"/><circle class="node" cx="487.83377341054927" cy="397.0120156114278" r="0.44" style="fill: #00ffff; stroke: #00b2b2; stroke-width: 1px;"/><circle class="node" cx="481.8379910385832" cy="405.024477322727" r="0.44" style="fill: #00ffff; stroke: #00b2b2; stroke-width: 1px;"/><circle class="node" cx="479.99137628339076" cy="404.27839665438484" r="0.44" style="fill: #00ffff; stroke: #00b2b2; stroke-width: 1px;"/><circle class="node" cx="473.1440525256002" cy="400.32207722124906" r="0.44" style="fill: #00ffff; stroke: #00b2b2; stroke-width: 1px;"/><circle class="node" cx="484.1576176600909" cy="405.30613686686235" r="0.44" style="fill: #00ffff; stroke: #00b2b2; stroke-width: 1px;"/></g></svg>