<?xml version="1.0" standalone="no"?>
<svg xmlns="http://www.w3.org/2000/svg" width="960" height="800"><g id="links"><line class="link" stroke="gray" stroke-opacity="0.8" x1="488.0405390329486" y1="400.1343650804745" x2="477.5007505820214" y2="394.1408200346529"/><line class="link" stroke="gray" stroke-opacity="0.8" x1="488.0405390329486" y1="400.1343650804745" x2="485.8498344840723" y2="391.7624558228327"/><line class="link" stroke="gray" stroke-opacity="0.8" x1="488.0405390329486" y1="400.1343650804745" x2="479.36474875070707" y2="400.7104064799613"/><line class="link" stroke="gray" stroke-opacity="0.8" x1="488.0405390329486" y1="400.1343650804745" x2="479.82298023070814" y2="403.8557353350477"/><line class="link" stroke="gray" stroke-opacity="0.8" x1="477.5007505820214" y1="394.1408200346529" x2="487.87884332807283" y2="396.5843613819999"/><line class="link" stroke="gray" stroke-opacity="0.8" x1="477.5007505820214" y1="394.1408200346529" x2="479.82298023070814" y2="403.8557353350477"/><line class="link" stroke="gray" stroke-opacity="0.8" x1="477.5007505820214" y1="394.1408200346529" x2="480.2351024451623" y2="402.0289968278304"/><line class="link" stroke="gray" stroke-opacity="0.8" x1="477.5007505820214" y1="394.1408200346529" x2="485.8498344840723" y2="391.7624558228327"/><line class="link" stroke="gray" stroke-opacity="0.8" x1="482.86053412511353" y1="405.05216301557465" x2="489.3314925540219" y2="397.9507477000372"/><line class="link" stroke="gray" stroke-opacity="0.8" x1="482.86053412511353" y1="405.05216301557465" x2="478.846718161974" y2="397.5456152863684"/><line class="link" stroke="gray" stroke-opacity="0.8" x1="482.86053412511353" y1="405.05216301557465" x2="476.2240909809147" y2="410.79276580910613"/><line class="link" stroke="gray" stroke-opacity="0.8" x1="482.86053412511353" y1="405.05216301557465" x2="471.85822775360316" y2="401.8161038323611"/><line class="link" stroke="gray" stroke-opacity="0.8" x1="473.8401702144588" y1="402.51263579618825" x2="480.2393752674314" y2="395.8345199103583"/><line class="link" stroke="gray" stroke-opacity="0.8" x1="473.8401702144588" y1="402.51263579618825" x2="483.1340269606533" y2="405.993148482949"/><line class="link" stroke="gray" stroke-opacity="0.8" x1="473.8401702144588" y1="402.51263579618825" x2="471.69908584633436" y2="392.3582501310611"/><line class="link" stroke="gray" stroke-opacity="0.8" x1="474.44365740685583" y1="408.1143657924247" x2="481.916641704866" y2="400.79188453887997"/><line class="link" stroke="gray" stroke-opacity="0.8" x1="474.44365740685583" y1="408.1143657924247" x2="479.36474875070707" y2="400.7104064799613"/><line class="link" stroke="gray" stroke-opacity="0.8" x1="471.85822775360316" y1="401.8161038323611" x2="475.84752398740085" y2="392.59433852229853"/><line class="link" stroke="gray" stroke-opacity="0.8" x1="471.85822775360316" y1="401.8161038323611" x2="481.916641704866" y2="400.79188453887997"/><line class="link" stroke="gray" stroke-opacity="0.8" x1="471.85822775360316" y1="401.8161038323611" x2="476.2240909809147" y2="410.79276580910613"/><line class="link" stroke="gray" stroke-opacity="0.8" x1="471.85822775360316" y1="401.8161038323611" x2="480.2351024451623" y2="402.0289968278304"/><line class="link" stroke="gray" stroke-opacity="0.8" x1="470.4127233054425" y1="402.34410852018766" x2="478.846718161974" y2="397.5456152863684"/><line class="link" stroke="gray" stroke-opacity="0.8" x1="470.4127233054425" y1="402.34410852018766" x2="471.69908584633436" y2="392.3582501310611"/><line class="link" stroke="gray" stroke-opacity="0.8" x1="470.4127233054425" y1="402.34410852018766" x2="479.82298023070814" y2="403.8557353350477"/><line class="link" stroke="gray" stroke-opacity="0.8" x1="481.916641704866" y1="400.79188453887997" x2="475.84752398740085" y2="392.59433852229853"/><line class="link" stroke="gray" stroke-opacity="0.8" x1="478.846718161974" y1="397.5456152863684" x2="487.87884332807283" y2="396.5843613819999"/><line class="link" stroke="gray" stroke-opacity="0.8" x1="478.846718161974" y1="397.5456152863684" x2="483.1340269606533" y2="405.993148482949"/><line class="link" stroke="gray" stroke-opacity="0.8" x1="478.846718161974" y1="397.5456152863684" x2="471.69908584633436" y2="392.3582501310611"/><line class="link" stroke="gray" stroke-opacity="0.8" x1="478.846718161974" y1="397.5456152863684" x2="486.25794122828177" y2="406.6103308431961"/><line class="link" stroke="gray" stroke-opacity="0.8" x1="486.25794122828177" y1="406.6103308431961" x2="487.87884332807283" y2="396.5843613819999"/><line class="link" stroke="gray" stroke-opacity="0.8" x1="486.25794122828177" y1="406.6103308431961" x2="476.2240909809147" y2="410.79276580910613"/><line class="link" stroke="gray" stroke-opacity="0.8" x1="486.25794122828177" y1="406.6103308431961" x2="480.2351024451623" y2="402.0289968278304"/><line class="link" stroke="gray" stroke-opacity="0.8" x1="479.82298023070814" y1="403.8557353350477" x2="487.87884332807283" y2="396.5843613819999"/><line class="link" stroke="gray" stroke-opacity="0.8" x1="480.2351024451623" y1="402.0289968278304" x2="487.87884332807283" y2="396.5843613819999"/><line class="link" stroke="gray" stroke-opacity="0.8" x1="480.2351024451623" y1="402.0289968278304" x2="476.2240909809147" y2="410.79276580910613"/><line class="link" stroke="gray" stroke-opacity="0.8" x1="480.2351024451623" y1="402.0289968278304" x2="475.84752398740085" y2="392.59433852229853"/><line class="link" stroke="gray" stroke-opacity="0.8" x1="479.36474875070707" y1="400.7104064799613" x2="475.84752398740085" y2="392.59433852229853"/><line class="link" stroke="gray" stroke-opacity="0.8" x1="479.36474875070707" y1="400.7104064799613" x2="485.8498344840723" y2="391.7624558228327"/><line class="link" stroke="gray" stroke-opacity="0.8" x1="485.8498344840723" y1="391.7624558228327" x2="475.84752398740085" y2="392.59433852229853"/><line class="link" stroke="gray" stroke-opacity="0.8" x1="489.3314925540219" y1="397.9507477000372" x2="480.2393752674314" y2="395.8345199103583"/><line class="link" stroke="gray" stroke-opacity="0.8" x1="489.3314925540219" y1="397.9507477000372" x2="483.1340269606533" y2="405.993148482949"/><line class="link" stroke="gray" stroke-opacity="0.8" x1="483.1340269606533" y1="405.993148482949" x2="480.2393752674314" y2="395.8345199103583"/></g><g id="nodes"><circle class="node" cx="488.0405390329486" cy="400.1343650804745" r="0.44" style="fill: #1f77b4; stroke: #15537d; stroke-width: 1px;"/><circle class="node" cx="477.5007505820214" cy="394.1408200346529" r="0.44" style="fill: #1f77b4; stroke: #15537d; stroke-width: 1px;"/><circle class="node" cx="482.86053412511353" cy="405.05216301557465" r="0.44" style="fill: #1f77b4; stroke: #15537d; stroke-width: 1px;"/><circle class="node" cx="473.8401702144588" cy="402.51263579618825" r="0.44" style="fill: #1f77b4; stroke: #15537d; stroke-width: 1px;"/><circle class="node" cx="474.44365740685583" cy="408.1143657924247" r="0.44" style="fill: #1f77b4; stroke: #15537d; stroke-width: 1px;"/><circle class="node" cx="471.85822775360316" cy="401.8161038323611" r="0.44" style="fill: #1f77b4; stroke: #15537d; stroke-width: 1px;"/><circle class="node" cx="470.4127233054425" cy="402.34410852018766" r="0.44" style="fill: #1f77b4; stroke: #15537d; stroke-width: 1px;"/><circle class="node" cx="481.916641704866" cy="400.79188453887997" r="0.44" style="fill: #1f77b4; stroke: #15537d; stroke-width: 1px;"/><circle class="node" cx="478.846718161974" cy="397.5456152863684" r="0.44" style="fill: #1f77b4; stroke: #15537d; stroke-width: 1px;"/><circle class="node" cx="486.25794122828177" cy="406.6103308431961" r="0.44" style="fill: #1f77b4; stroke: #15537d; stroke-width: 1px;"/><circle class="node" cx="479.82298023070814" cy="403.8557353350477" r="0.44" style="fill: #1f77b4; stroke: #15537d; stroke-width: 1px;"/><circle class="node" cx="480.2351024451623" cy="402.0289968278304" r="0.44" style="fill: #1f77b4; stroke: #15537d; stroke-width: 1px;"/><circle class="node" cx="479.36474875070707" cy="400.7104064799613" r="0.44" style="fill: #1f77b4; stroke: #15537d; stroke-width: 1px;"/><circle class="node" cx="487.87884332807283" cy="396.5843613819999" r="0.44" style="fill: #1f77b4; stroke: #15537d; stroke-width: 1px;"/><circle class="node" cx="485.8498344840723" cy="391.7624558228327" r="0.44" style="fill: #1f77b4; stroke: #15537d; stroke-width: 1px;"/><circle class="node" cx="489.3314925540219" cy="397.9507477000372" r="0.44" style="fill: #1f77b4; stroke: #15537d; stroke-width: 1px;"/><circle class="node" cx="483.1340269606533" cy="405.993148482949" r="0.44" style="fill: #1f77b4; stroke: #15537d; stroke-width: 1px;"/><circle class="node" cx="480.2393752674314" cy="395.8345199103583" r="0.44" style="fill: #1f77b4; stroke: #15537d; stroke-width: 1px;"/><circle class="node" cx="476.2240909809147" cy="410.79276580910613" r="0.44" style="fill: #1f77b4; stroke: #15537d; stroke-width: 1px;"/><circle class="node" cx="475.84752398740085" cy="392.59433852229853" r="0.44" style="fill: #1f77b4; stroke: #15537d; stroke-width: 1px;"/><circle class="node" cx="471.69908584633436" cy="392.3582501310611" r="0.44" style="fill: #1f77b4; stroke: #15537d; stroke-width: 1px;"/></g></svg>