<?xml version="1.0" standalone="no"?>
<svg xmlns="http://www.w3.org/2000/svg" width="960" height="800"><g id="links"><line class="link" stroke="#999999" stroke-opacity="0.8" x1="483.46080388108066" y1="404.06784114935897" x2="482.4019781860498" y2="395.03383558461877"/><line class="link" stroke="#999999" stroke-opacity="0.8" x1="483.46080388108066" y1="404.06784114935897" x2="474.784391649708" y2="403.02917647994167"/><line class="link" stroke="#999999" stroke-opacity="0.8" x1="483.46080388108066" y1="404.06784114935897" x2="473.8867482742509" y2="397.64917603478705"/><line class="link" stroke="#999999" stroke-opacity="0.8" x1="469.16812539572214" y1="402.4369152312305" x2="474.3626860058483" y2="393.4429095078196"/><line class="link" stroke="#999999" stroke-opacity="0.8" x1="469.16812539572214" y1="402.4369152312305" x2="473.4928362669067" y2="393.80841282974177"/><line class="link" stroke="#999999" stroke-opacity="0.8" x1="469.16812539572214" y1="402.4369152312305" x2="478.15179659821894" y2="403.9940358065594"/><line class="link" stroke="#999999" stroke-opacity="0.8" x1="482.6528952076874" y1="395.18454860026173" x2="475.761804149585" y2="401.83609933089684"/><line class="link" stroke="#999999" stroke-opacity="0.8" x1="482.6528952076874" y1="395.18454860026173" x2="481.0287825475832" y2="407.7683691095915"/><line class="link" stroke="#999999" stroke-opacity="0.8" x1="482.6528952076874" y1="395.18454860026173" x2="487.26217431220584" y2="402.2837439276466"/><line class="link" stroke="#999999" stroke-opacity="0.8" x1="482.6528952076874" y1="395.18454860026173" x2="476.8172884574607" y2="402.07481579296916"/><line class="link" stroke="#999999" stroke-opacity="0.8" x1="482.6528952076874" y1="395.18454860026173" x2="487.9788087514698" y2="404.08616282740167"/><line class="link" stroke="#999999" stroke-opacity="0.8" x1="473.8867482742509" y1="397.64917603478705" x2="485.1049793883808" y2="399.6721468585991"/><line class="link" stroke="#999999" stroke-opacity="0.8" x1="473.8867482742509" y1="397.64917603478705" x2="479.2133891466003" y2="391.16079207018066"/><line class="link" stroke="#999999" stroke-opacity="0.8" x1="473.8867482742509" y1="397.64917603478705" x2="478.15179659821894" y2="403.9940358065594"/><line class="link" stroke="#999999" stroke-opacity="0.8" x1="476.8172884574607" y1="402.07481579296916" x2="486.34059972925775" y2="396.13394740184066"/><line class="link" stroke="#999999" stroke-opacity="0.8" x1="476.8172884574607" y1="402.07481579296916" x2="485.1049793883808" y2="399.6721468585991"/><line class="link" stroke="#999999" stroke-opacity="0.8" x1="476.8172884574607" y1="402.07481579296916" x2="479.2133891466003" y2="391.16079207018066"/><line class="link" stroke="#999999" stroke-opacity="0.8" x1="476.8172884574607" y1="402.07481579296916" x2="487.26217431220584" y2="402.2837439276466"/><line class="link" stroke="#999999" stroke-opacity="0.8" x1="476.8172884574607" y1="402.07481579296916" x2="483.4628741696061" y2="410.5657856846545"/><line class="link" stroke="#999999" stroke-opacity="0.8" x1="485.1049793883808" y1="399.6721468585991" x2="479.2133891466003" y2="391.16079207018066"/><line class="link" stroke="#999999" stroke-opacity="0.8" x1="485.1049793883808" y1="399.6721468585991" x2="483.4628741696061" y2="410.5657856846545"/><line class="link" stroke="#999999" stroke-opacity="0.8" x1="474.3626860058483" y1="393.4429095078196" x2="478.15179659821894" y2="403.9940358065594"/><line class="link" stroke="#999999" stroke-opacity="0.8" x1="474.3626860058483" y1="393.4429095078196" x2="475.761804149585" y2="401.83609933089684"/><line class="link" stroke="#999999" stroke-opacity="0.8" x1="477.3737213070432" y1="399.3276745617738" x2="486.34059972925775" y2="396.13394740184066"/><line class="link" stroke="#999999" stroke-opacity="0.8" x1="477.3737213070432" y1="399.3276745617738" x2="485.63341620721485" y2="394.7509945759833"/><line class="link" stroke="#999999" stroke-opacity="0.8" x1="477.3737213070432" y1="399.3276745617738" x2="481.0287825475832" y2="407.7683691095915"/><line class="link" stroke="#999999" stroke-opacity="0.8" x1="477.3737213070432" y1="399.3276745617738" x2="487.9788087514698" y2="404.08616282740167"/><line class="link" stroke="#999999" stroke-opacity="0.8" x1="478.15179659821894" y1="403.9940358065594" x2="482.4019781860498" y2="395.03383558461877"/><line class="link" stroke="#999999" stroke-opacity="0.8" x1="478.15179659821894" y1="403.9940358065594" x2="487.26217431220584" y2="402.2837439276466"/><line class="link" stroke="#999999" stroke-opacity="0.8" x1="478.15179659821894" y1="403.9940358065594" x2="483.4628741696061" y2="410.5657856846545"/><line class="link" stroke="#999999" stroke-opacity="0.8" x1="486.34059972925775" y1="396.13394740184066" x2="477.5690443709963" y2="401.0484365123434"/><line class="link" stroke="#999999" stroke-opacity="0.8" x1="486.34059972925775" y1="396.13394740184066" x2="479.2133891466003" y2="391.16079207018066"/><line class="link" stroke="#999999" stroke-opacity="0.8" x1="486.34059972925775" y1="396.13394740184066" x2="487.9788087514698" y2="404.08616282740167"/><line class="link" stroke="#999999" stroke-opacity="0.8" x1="477.5690443709963" y1="401.0484365123434" x2="479.2133891466003" y2="391.16079207018066"/><line class="link" stroke="#999999" stroke-opacity="0.8" x1="477.5690443709963" y1="401.0484365123434" x2="485.63341620721485" y2="394.7509945759833"/><line class="link" stroke="#999999" stroke-opacity="0.8" x1="482.4019781860498" y1="395.03383558461877" x2="473.4928362669067" y2="393.80841282974177"/><line class="link" stroke="#999999" stroke-opacity="0.8" x1="482.4019781860498" y1="395.03383558461877" x2="474.784391649708" y2="403.02917647994167"/><line class="link" stroke="#999999" stroke-opacity="0.8" x1="481.0287825475832" y1="407.7683691095915" x2="475.761804149585" y2="401.83609933089684"/><line class="link" stroke="#999999" stroke-opacity="0.8" x1="481.0287825475832" y1="407.7683691095915" x2="487.9788087514698" y2="404.08616282740167"/><line class="link" stroke="#999999" stroke-opacity="0.8" x1="474.784391649708" y1="403.02917647994167" x2="473.4928362669067" y2="393.80841282974177"/><line class="link" stroke="#999999" stroke-opacity="0.8" x1="475.761804149585" y1="401.83609933089684" x2="487.26217431220584" y2="402.2837439276466"/><line class="link" stroke="#999999" stroke-opacity="0.8" x1="487.26217431220584" y1="402.2837439276466" x2="483.4628741696061" y2="410.5657856846545"/></g><g id="nodes"><circle class="node" cx="483.46080388108066" cy="404.06784114935897" r="0.44" style="fill: #00ffff; stroke: #00b2b2; stroke-width: 1px;"/><circle class="node" cx="469.16812539572214" cy="402.4369152312305" r="0.44" style="fill: #00ffff; stroke: #00b2b2; stroke-width: 1px;"/><circle class="node" cx="482.6528952076874" cy="395.18454860026173" r="0.44" style="fill: #00ffff; stroke: #00b2b2; stroke-width: 1px;"/><circle class="node" cx="473.8867482742509" cy="397.64917603478705" r="0.44" style="fill: #00ffff; stroke: #00b2b2; stroke-width: 1px;"/><circle class="node" cx="476.8172884574607" cy="402.07481579296916" r="0.44" style="fill: #00ffff; stroke: #00b2b2; stroke-width: 1px;"/><circle class="node" cx="485.1049793883808" cy="399.6721468585991" r="0.44" style="fill: #00ffff; stroke: #00b2b2; stroke-width: 1px;"/><circle class="node" cx="474.3626860058483" cy="393.4429095078196" r="0.44" style="fill: #00ffff; stroke: #00b2b2; stroke-width: 1px;"/><circle class="node" cx="477.3737213070432" cy="399.3276745617738" r="0.44" style="fill: #00ffff; stroke: #00b2b2; stroke-width: 1px;"/><circle class="node" cx="478.15179659821894" cy="403.9940358065594" r="0.44" style="fill: #00ffff; stroke: #00b2b2; stroke-width: 1px;"/><circle class="node" cx="486.34059972925775" cy="396.13394740184066" r="0.44" style="fill: #00ffff; stroke: #00b2b2; stroke-width: 1px;"/><circle class="node" cx="477.5690443709963" cy="401.0484365123434" r="0.44" style="fill: #00ffff; stroke: #00b2b2; stroke-width: 1px;"/><circle class="node" cx="482.4019781860498" cy="395.03383558461877" r="0.44" style="fill: #00ffff; stroke: #00b2b2; stroke-width: 1px;"/><circle class="node" cx="481.0287825475832" cy="407.7683691095915" r="0.44" style="fill: #00ffff; stroke: #00b2b2; stroke-width: 1px;"/><circle class="node" cx="474.784391649708" cy="403.02917647994167" r="0.44" style="fill: #00ffff; stroke: #00b2b2; stroke-width: 1px;"/><circle class="node" cx="485.63341620721485" cy="394.7509945759833" r="0.44" style="fill: #00ffff; stroke: #00b2b2; stroke-width: 1px;"/><circle class="node" cx="473.4928362669067" cy="393.80841282974177" r="0.44" style="fill: #00ffff; stroke: #00b2b2; stroke-width: 1px;"/><circle class="node" cx="475.761804149585" cy="401.83609933089684" r="0.44" style="fill: #00ffff; stroke: #00b2b2; stroke-width: 1px;"/><circle class="node" cx="479.2133891466003" cy="391.16079207018066" r="0.44" style="fill: #00ffff; stroke: #00b2b2; stroke-width: 1px;"/><circle class="node" cx="487.26217431220584" cy="402.2837439276466" r="0.44" style="fill: #00ffff; stroke: #00b2b2; stroke-width: 1px;"/><circle class="node" cx="483.4628741696061" cy="410.5657856846545" r="0.44" style="fill: #00ffff; stroke: #00b2b2; stroke-width: 1px;"/><circle class="node" cx="487.9788087514698" cy="404.08616282740167" r="0.44" style="fill: #00ffff; stroke: #00b2b2; stroke-width: 1px;"/></g></svg>